<svg width="13" height="12" viewBox="0 0 13 12" fill="none" xmlns="http://www.w3.org/2000/svg">
<path d="M0 11.2273L6.50001 0L13 11.2273H0ZM2.03864 10.0455H10.9614L6.50001 2.36364L2.03864 10.0455ZM6.50001 9.45456C6.66743 9.45456 6.80778 9.39793 6.92103 9.28467C7.03429 9.17142 7.09092 9.03107 7.09092 8.86365C7.09092 8.69623 7.03429 8.55589 6.92103 8.44263C6.80778 8.32937 6.66743 8.27274 6.50001 8.27274C6.33259 8.27274 6.19224 8.32937 6.07899 8.44263C5.96573 8.55589 5.9091 8.69623 5.9091 8.86365C5.9091 9.03107 5.96573 9.17142 6.07899 9.28467C6.19224 9.39793 6.33259 9.45456 6.50001 9.45456ZM5.9091 7.68183H7.09092V4.72728H5.9091V7.68183Z" fill="#404943"/>
</svg>
