<svg width="10" height="12" viewBox="0 0 10 12" fill="none" xmlns="http://www.w3.org/2000/svg">
<path d="M4.79997 5.99996C5.12996 5.99996 5.41246 5.88246 5.64746 5.64746C5.88246 5.41246 5.99996 5.12996 5.99996 4.79997C5.99996 4.46997 5.88246 4.18747 5.64746 3.95247C5.41246 3.71747 5.12996 3.59997 4.79997 3.59997C4.46997 3.59997 4.18747 3.71747 3.95247 3.95247C3.71747 4.18747 3.59997 4.46997 3.59997 4.79997C3.59997 5.12996 3.71747 5.41246 3.95247 5.64746C4.18747 5.88246 4.46997 5.99996 4.79997 5.99996ZM4.79997 10.4099C6.01996 9.28994 6.92495 8.27244 7.51495 7.35745C8.10494 6.44245 8.39994 5.62996 8.39994 4.91997C8.39994 3.82997 8.05244 2.93748 7.35745 2.24248C6.66245 1.54749 5.80996 1.19999 4.79997 1.19999C3.78997 1.19999 2.93748 1.54749 2.24248 2.24248C1.54749 2.93748 1.19999 3.82997 1.19999 4.91997C1.19999 5.62996 1.49499 6.44245 2.08499 7.35745C2.67498 8.27244 3.57998 9.28994 4.79997 10.4099ZM4.79997 11.9999C3.18998 10.6299 1.98749 9.35743 1.19249 8.18244C0.397497 7.00745 0 5.91996 0 4.91997C0 3.41998 0.482497 2.22498 1.44749 1.33499C2.41248 0.444997 3.52998 0 4.79997 0C6.06996 0 7.18745 0.444997 8.15244 1.33499C9.11744 2.22498 9.59993 3.41998 9.59993 4.91997C9.59993 5.91996 9.20244 7.00745 8.40744 8.18244C7.61245 9.35743 6.40995 10.6299 4.79997 11.9999Z" fill="#404943"/>
</svg>
