<svg width="13" height="13" viewBox="0 0 13 13" fill="none" xmlns="http://www.w3.org/2000/svg">
<path d="M5.0696 4.45135L6.44519 2.17931L5.53328 0.664612C5.40963 0.458531 5.23189 0.35549 5.00005 0.35549C4.7682 0.35549 4.59046 0.458531 4.46681 0.664612L2.95211 3.18395L5.0696 4.45135ZM11.0511 8.65541L9.67551 6.36791L11.8239 5.13142L12.8131 6.78522C12.9264 6.96039 12.9883 7.15617 12.9986 7.37256C13.0089 7.58894 12.9625 7.78987 12.8595 7.97534C12.7564 8.18142 12.6044 8.34629 12.4035 8.46994C12.2026 8.59359 11.9836 8.65541 11.7466 8.65541H11.0511ZM9.27365 12.9831L6.80068 10.5101L9.27365 8.03717V9.27365H12.2103L11.3139 11.0666C11.2005 11.2726 11.046 11.4375 10.8502 11.5612C10.6544 11.6848 10.438 11.7466 10.201 11.7466H9.27365V12.9831ZM3.29215 11.7466C3.08607 11.7466 2.89802 11.6925 2.728 11.5843C2.55798 11.4761 2.43176 11.3345 2.34933 11.1593C2.26689 10.9944 2.22825 10.8218 2.23341 10.6415C2.23856 10.4612 2.2875 10.2938 2.38024 10.1392L2.90574 9.27365H5.56419V11.7466H3.29215ZM1.76199 9.98464L0.757348 7.97534C0.664612 7.78987 0.62082 7.59152 0.625972 7.38028C0.631124 7.16905 0.690372 6.9707 0.803717 6.78522L1.05101 6.36791L0 5.73421L3.38488 4.88412L4.23497 8.28446L3.1685 7.63531L1.76199 9.98464ZM10.1083 4.69865L6.7234 3.84857L7.78987 3.21487L5.85786 0H8.03717C8.25355 0 8.45706 0.0540963 8.64768 0.162289C8.83831 0.270482 8.99029 0.417314 9.10364 0.602788L9.90735 1.94747L10.9584 1.29831L10.1083 4.69865Z" fill="#404943"/>
</svg>
