<svg width="15" height="13" viewBox="0 0 15 13" fill="none" xmlns="http://www.w3.org/2000/svg">
<path d="M0 12.9545L7.49999 0L15 12.9545H0ZM2.35227 11.5909H12.6477L7.49999 2.72727L2.35227 11.5909ZM7.49999 10.9091C7.69317 10.9091 7.8551 10.8437 7.98578 10.7131C8.11647 10.5824 8.18181 10.4204 8.18181 10.2273C8.18181 10.0341 8.11647 9.87215 7.98578 9.74146C7.8551 9.61078 7.69317 9.54544 7.49999 9.54544C7.30681 9.54544 7.14488 9.61078 7.01419 9.74146C6.88351 9.87215 6.81817 10.0341 6.81817 10.2273C6.81817 10.4204 6.88351 10.5824 7.01419 10.7131C7.14488 10.8437 7.30681 10.9091 7.49999 10.9091ZM6.81817 8.86362H8.18181V5.45454H6.81817V8.86362Z" fill="#404943"/>
</svg>
