<svg width="68" height="28" viewBox="0 0 68 28" fill="none" xmlns="http://www.w3.org/2000/svg">
<path d="M4 21V19H6V12C6 10.6167 6.41667 9.3875 7.25 8.3125C8.08333 7.2375 9.16667 6.53333 10.5 6.2V5.5C10.5 5.08333 10.6458 4.72917 10.9375 4.4375C11.2292 4.14583 11.5833 4 12 4C12.4167 4 12.7708 4.14583 13.0625 4.4375C13.3542 4.72917 13.5 5.08333 13.5 5.5V6.2C14.8333 6.53333 15.9167 7.2375 16.75 8.3125C17.5833 9.3875 18 10.6167 18 12V19H20V21H4ZM12 24C11.45 24 10.9792 23.8042 10.5875 23.4125C10.1958 23.0208 10 22.55 10 22H14C14 22.55 13.8042 23.0208 13.4125 23.4125C13.0208 23.8042 12.55 24 12 24ZM8 19H16V12C16 10.9 15.6083 9.95833 14.825 9.175C14.0417 8.39167 13.1 8 12 8C10.9 8 9.95833 8.39167 9.175 9.175C8.39167 9.95833 8 10.9 8 12V19Z" fill="#0F5238"/>
<path d="M47.84 19.1C48.69 18.45 49.64 17.9375 50.69 17.5625C51.74 17.1875 52.84 17 53.99 17C55.14 17 56.24 17.1875 57.29 17.5625C58.34 17.9375 59.29 18.45 60.14 19.1C60.7233 18.4167 61.1775 17.6417 61.5025 16.775C61.8275 15.9083 61.99 14.9833 61.99 14C61.99 11.7833 61.2108 9.89583 59.6525 8.3375C58.0942 6.77917 56.2067 6 53.99 6C51.7733 6 49.8858 6.77917 48.3275 8.3375C46.7692 9.89583 45.99 11.7833 45.99 14C45.99 14.9833 46.1525 15.9083 46.4775 16.775C46.8025 17.6417 47.2567 18.4167 47.84 19.1ZM53.99 15C53.0067 15 52.1775 14.6625 51.5025 13.9875C50.8275 13.3125 50.49 12.4833 50.49 11.5C50.49 10.5167 50.8275 9.6875 51.5025 9.0125C52.1775 8.3375 53.0067 8 53.99 8C54.9733 8 55.8025 8.3375 56.4775 9.0125C57.1525 9.6875 57.49 10.5167 57.49 11.5C57.49 12.4833 57.1525 13.3125 56.4775 13.9875C55.8025 14.6625 54.9733 15 53.99 15ZM53.99 24C52.6067 24 51.3067 23.7375 50.09 23.2125C48.8733 22.6875 47.815 21.975 46.915 21.075C46.015 20.175 45.3025 19.1167 44.7775 17.9C44.2525 16.6833 43.99 15.3833 43.99 14C43.99 12.6167 44.2525 11.3167 44.7775 10.1C45.3025 8.88333 46.015 7.825 46.915 6.925C47.815 6.025 48.8733 5.3125 50.09 4.7875C51.3067 4.2625 52.6067 4 53.99 4C55.3733 4 56.6733 4.2625 57.89 4.7875C59.1067 5.3125 60.165 6.025 61.065 6.925C61.965 7.825 62.6775 8.88333 63.2025 10.1C63.7275 11.3167 63.99 12.6167 63.99 14C63.99 15.3833 63.7275 16.6833 63.2025 17.9C62.6775 19.1167 61.965 20.175 61.065 21.075C60.165 21.975 59.1067 22.6875 57.89 23.2125C56.6733 23.7375 55.3733 24 53.99 24ZM53.99 22C54.8733 22 55.7067 21.8708 56.49 21.6125C57.2733 21.3542 57.99 20.9833 58.64 20.5C57.99 20.0167 57.2733 19.6458 56.49 19.3875C55.7067 19.1292 54.8733 19 53.99 19C53.1067 19 52.2733 19.1292 51.49 19.3875C50.7067 19.6458 49.99 20.0167 49.34 20.5C49.99 20.9833 50.7067 21.3542 51.49 21.6125C52.2733 21.8708 53.1067 22 53.99 22ZM53.99 13C54.4233 13 54.7817 12.8583 55.065 12.575C55.3483 12.2917 55.49 11.9333 55.49 11.5C55.49 11.0667 55.3483 10.7083 55.065 10.425C54.7817 10.1417 54.4233 10 53.99 10C53.5567 10 53.1983 10.1417 52.915 10.425C52.6317 10.7083 52.49 11.0667 52.49 11.5C52.49 11.9333 52.6317 12.2917 52.915 12.575C53.1983 12.8583 53.5567 13 53.99 13Z" fill="#0F5238"/>
</svg>
