<svg width="157" height="44" viewBox="0 0 157 44" fill="none" xmlns="http://www.w3.org/2000/svg">
<path d="M4.61484 12.1172C3.85187 12.1172 3.16785 11.9397 2.56277 11.5847C1.9577 11.2297 1.48016 10.7179 1.13016 10.0494C0.78016 9.3809 0.605161 8.57797 0.605161 7.64062C0.605161 6.69797 0.78016 5.89203 1.13016 5.22281C1.48016 4.55359 1.9577 4.04121 2.56277 3.68566C3.16785 3.33012 3.85187 3.15234 4.61484 3.15234C5.37781 3.15234 6.06086 3.33012 6.66398 3.68566C7.26711 4.04121 7.74339 4.55359 8.09285 5.22281C8.4423 5.89203 8.61702 6.69797 8.61702 7.64062C8.61702 8.57937 8.4423 9.38301 8.09285 10.0515C7.74339 10.72 7.26711 11.2314 6.66398 11.5857C6.06086 11.94 5.37781 12.1172 4.61484 12.1172ZM4.61484 10.7147C5.08938 10.7147 5.50918 10.5969 5.87426 10.3614C6.23934 10.1258 6.52587 9.77899 6.73384 9.32087C6.94181 8.86274 7.04579 8.30266 7.04579 7.64062C7.04579 6.97218 6.94181 6.40855 6.73384 5.94972C6.52587 5.49089 6.23934 5.1437 5.87426 4.90815C5.50918 4.6726 5.08938 4.55483 4.61484 4.55483C4.13922 4.55483 3.71824 4.67323 3.35191 4.91003C2.98558 5.14682 2.69807 5.49464 2.4894 5.95347C2.28073 6.4123 2.17639 6.97468 2.17639 7.64062C2.17639 8.30266 2.28073 8.86212 2.4894 9.31899C2.69807 9.77587 2.98558 10.1227 3.35191 10.3595C3.71824 10.5963 4.13922 10.7147 4.61484 10.7147ZM13.4714 12.1322C12.8355 12.1322 12.2833 11.9912 11.815 11.7093C11.3466 11.4273 10.9843 11.0328 10.7279 10.5257C10.4716 10.0186 10.3434 9.42906 10.3434 8.75719C10.3434 8.07781 10.4716 7.48395 10.7279 6.97559C10.9843 6.46723 11.3466 6.07207 11.815 5.79012C12.2833 5.50816 12.8355 5.36719 13.4714 5.36719C13.837 5.36719 14.1759 5.41453 14.4881 5.50922C14.8003 5.6039 15.0796 5.73965 15.3261 5.91644C15.5726 6.09324 15.7784 6.30871 15.9436 6.56285C16.1087 6.81698 16.2271 7.10351 16.2987 7.42241L14.8716 7.72218C14.8317 7.5528 14.7711 7.39956 14.6896 7.26245C14.6081 7.12534 14.5089 7.00749 14.392 6.9089C14.2752 6.8103 14.1406 6.73479 13.9883 6.68237C13.8361 6.62995 13.668 6.60374 13.4841 6.60374C13.1295 6.60374 12.8348 6.69796 12.6 6.8864C12.3651 7.07484 12.1889 7.3307 12.0711 7.65398C11.9534 7.97726 11.8945 8.34359 11.8945 8.75297C11.8945 9.15594 11.9534 9.51914 12.0711 9.84258C12.1889 10.166 12.3651 10.4224 12.6 10.6117C12.8348 10.801 13.1295 10.8956 13.4841 10.8956C13.6705 10.8956 13.8411 10.8684 13.9958 10.8141C14.1506 10.7597 14.288 10.6816 14.4081 10.5798C14.5282 10.478 14.629 10.355 14.7104 10.2108C14.7919 10.0666 14.8519 9.90657 14.8903 9.73079L16.3137 10.0284C16.2446 10.3566 16.1269 10.6497 15.9605 10.9077C15.7941 11.1657 15.5873 11.3864 15.3403 11.5696C15.0933 11.7528 14.8121 11.8923 14.4967 11.9883C14.1813 12.0842 13.8395 12.1322 13.4714 12.1322ZM21.2501 5.44922V6.64264H17.5301V5.44922H21.2501ZM18.4596 3.89062H19.9826V10.1552C19.9826 10.392 20.0333 10.5658 20.1349 10.6766C20.2365 10.7875 20.4041 10.8429 20.6379 10.8429C20.7057 10.8429 20.797 10.8347 20.9117 10.8184C21.0265 10.8021 21.1191 10.7861 21.1896 10.7705L21.4296 11.9459C21.2626 11.9976 21.0918 12.0343 20.9173 12.0559C20.7427 12.0775 20.5737 12.0884 20.4103 12.0884C19.7834 12.0884 19.3016 11.9323 18.9648 11.6201C18.628 11.3079 18.4596 10.8631 18.4596 10.2858V3.89062ZM26.6569 12V10.8745L29.6859 7.89048C29.9708 7.60079 30.2101 7.34246 30.4038 7.11551C30.5976 6.88855 30.7446 6.66797 30.8448 6.45375C30.945 6.23953 30.9952 6.0089 30.9952 5.76187C30.9952 5.48671 30.9317 5.24941 30.8047 5.04995C30.6778 4.8505 30.5057 4.69718 30.2884 4.58999C30.0711 4.4828 29.8231 4.42921 29.5444 4.42921C29.2531 4.42921 28.9995 4.48815 28.7835 4.60604C28.5675 4.72393 28.4004 4.89124 28.2824 5.10796C28.1643 5.32468 28.1053 5.58234 28.1053 5.88093H26.6128C26.6128 5.33015 26.7386 4.85031 26.9903 4.4414C27.2419 4.0325 27.5897 3.71543 28.0336 3.49019C28.4775 3.26496 28.9873 3.15234 29.5631 3.15234C30.1473 3.15234 30.6597 3.2618 31.1001 3.4807C31.5406 3.69961 31.8842 3.99934 32.131 4.37988C32.3778 4.76043 32.5012 5.19468 32.5012 5.68265C32.5012 6.00609 32.44 6.32285 32.3176 6.63292C32.1952 6.943 31.978 7.29171 31.6662 7.67906C31.3543 8.0664 30.9131 8.53421 30.3427 9.08249L28.8248 10.6285V10.6945H32.6287V12H26.6569ZM34.3889 10.3744V9.13079L38.0995 3.26953H39.1298V5.04795H38.4994L35.9897 9.01548V9.08579H41.1661V10.3744H34.3889ZM38.5448 12V9.99937L38.5697 9.43454V3.26953H40.0458V12H38.5448ZM42.6659 14.2448L43.1815 10.7138H44.7555L43.7318 14.2448H42.6659ZM50.5373 12V10.8745L53.5664 7.89048C53.8513 7.60079 54.0905 7.34246 54.2843 7.11551C54.4781 6.88855 54.625 6.66797 54.7253 6.45375C54.8255 6.23953 54.8756 6.0089 54.8756 5.76187C54.8756 5.48671 54.8122 5.24941 54.6852 5.04995C54.5582 4.8505 54.3861 4.69718 54.1689 4.58999C53.9516 4.4828 53.7036 4.42921 53.4248 4.42921C53.1336 4.42921 52.88 4.48815 52.6639 4.60604C52.4479 4.72393 52.2809 4.89124 52.1628 5.10796C52.0448 5.32468 51.9858 5.58234 51.9858 5.88093H50.4933C50.4933 5.33015 50.6191 4.85031 50.8707 4.4414C51.1224 4.0325 51.4702 3.71543 51.9141 3.49019C52.358 3.26496 52.8678 3.15234 53.4436 3.15234C54.0278 3.15234 54.5401 3.2618 54.9806 3.4807C55.4211 3.69961 55.7647 3.99934 56.0115 4.37988C56.2583 4.76043 56.3817 5.19468 56.3817 5.68265C56.3817 6.00609 56.3205 6.32285 56.1981 6.63292C56.0757 6.943 55.8585 7.29171 55.5466 7.67906C55.2348 8.0664 54.7936 8.53421 54.2231 9.08249L52.7053 10.6285V10.6945H56.5092V12H50.5373ZM61.7875 12.1172C61.0816 12.1172 60.4791 11.9407 59.9798 11.5877C59.4806 11.2348 59.0983 10.7253 58.8329 10.0593C58.5675 9.39324 58.4348 8.58668 58.4348 7.63958C58.4348 6.69637 58.5681 5.89055 58.8347 5.22212C59.1013 4.5537 59.4842 4.04163 59.9832 3.68591C60.4823 3.3302 61.0837 3.15234 61.7875 3.15234C62.4913 3.15234 63.0938 3.33043 63.5949 3.6866C64.0961 4.04277 64.479 4.55484 64.7437 5.22281C65.0084 5.89078 65.1408 6.6968 65.1408 7.64088C65.1408 8.58496 65.009 9.39054 64.7456 10.0576C64.4822 10.7247 64.1008 11.2348 63.6016 11.5877C63.1024 11.9407 62.4977 12.1172 61.7875 12.1172ZM61.788 10.8028C62.1687 10.8028 62.4912 10.6789 62.7558 10.4311C63.0203 10.1833 63.2219 9.82395 63.3606 9.35309C63.4993 8.88223 63.5686 8.31132 63.5686 7.64036C63.5686 6.96585 63.4993 6.39156 63.3606 5.91749C63.2219 5.44343 63.0202 5.08179 62.7554 4.83257C62.4905 4.58335 62.1682 4.45874 61.7884 4.45874C61.4086 4.45874 61.0861 4.58397 60.8209 4.83444C60.5557 5.08491 60.3537 5.44655 60.215 5.91937C60.0764 6.39218 60.007 6.96585 60.007 7.64036C60.007 8.31132 60.076 8.88223 60.214 9.35309C60.3519 9.82395 60.5536 10.1833 60.819 10.4311C61.0844 10.6789 61.4074 10.8028 61.788 10.8028ZM67.1299 12V10.8745L70.159 7.89048C70.4438 7.60079 70.6831 7.34246 70.8769 7.11551C71.0706 6.88855 71.2176 6.66797 71.3179 6.45375C71.4181 6.23953 71.4682 6.0089 71.4682 5.76187C71.4682 5.48671 71.4047 5.24941 71.2778 5.04995C71.1508 4.8505 70.9787 4.69718 70.7614 4.58999C70.5442 4.4828 70.2962 4.42921 70.0174 4.42921C69.7262 4.42921 69.4725 4.48815 69.2565 4.60604C69.0405 4.72393 68.8735 4.89124 68.7554 5.10796C68.6374 5.32468 68.5783 5.58234 68.5783 5.88093H67.0859C67.0859 5.33015 67.2117 4.85031 67.4633 4.4414C67.715 4.0325 68.0627 3.71543 68.5066 3.49019C68.9505 3.26496 69.4604 3.15234 70.0362 3.15234C70.6204 3.15234 71.1327 3.2618 71.5732 3.4807C72.0137 3.69961 72.3573 3.99934 72.6041 4.37988C72.8509 4.76043 72.9743 5.19468 72.9743 5.68265C72.9743 6.00609 72.9131 6.32285 72.7907 6.63292C72.6682 6.943 72.4511 7.29171 72.1392 7.67906C71.8273 8.0664 71.3862 8.53421 70.8157 9.08249L69.2979 10.6285V10.6945H73.1018V12H67.1299ZM78.2379 12.1172C77.6254 12.1172 77.0819 12.0121 76.6075 11.8021C76.133 11.592 75.7582 11.3005 75.4829 10.9275C75.2077 10.5545 75.0638 10.1228 75.0513 9.63235H76.6277C76.6427 9.87032 76.7216 10.0772 76.8644 10.2531C77.0073 10.429 77.1979 10.5646 77.4363 10.6601C77.6748 10.7556 77.941 10.8033 78.2351 10.8033C78.5488 10.8033 78.8262 10.7486 79.0672 10.6392C79.3082 10.5299 79.4978 10.3768 79.6358 10.1801C79.7739 9.98337 79.8429 9.75641 79.8429 9.49922C79.8429 9.23203 79.7729 8.99731 79.633 8.79504C79.4931 8.59277 79.2921 8.43418 79.03 8.31925C78.7679 8.20433 78.4516 8.14687 78.0813 8.14687H77.307V6.9375H78.0813C78.3832 6.9375 78.6496 6.88407 78.8805 6.77719C79.1115 6.67032 79.2915 6.52137 79.4205 6.33035C79.5496 6.13934 79.6141 5.91594 79.6141 5.66015C79.6141 5.41328 79.558 5.19788 79.4459 5.01398C79.3337 4.83007 79.1755 4.68663 78.9714 4.58366C78.7672 4.48069 78.528 4.42921 78.2538 4.42921C77.9851 4.42921 77.737 4.47729 77.5096 4.57346C77.2821 4.66964 77.0981 4.80573 76.9574 4.98175C76.8167 5.15776 76.7426 5.36937 76.7351 5.61656H75.2304C75.2404 5.1314 75.3803 4.70375 75.65 4.33359C75.9198 3.96344 76.2824 3.67402 76.7379 3.46535C77.1934 3.25668 77.7037 3.15234 78.2688 3.15234C78.8484 3.15234 79.353 3.26172 79.7829 3.48047C80.2127 3.69922 80.5454 3.99125 80.781 4.35656C81.0165 4.72187 81.1343 5.12562 81.1343 5.56781C81.1343 6.05718 80.9903 6.46847 80.7024 6.80168C80.4146 7.13488 80.0346 7.35453 79.5626 7.46063V7.52672C79.9688 7.5825 80.3126 7.70363 80.5938 7.89012C80.8751 8.0766 81.0882 8.31387 81.2332 8.60192C81.3782 8.88996 81.4507 9.21547 81.4507 9.57844C81.4507 10.0677 81.3126 10.5036 81.0365 10.8864C80.7605 11.2691 80.3806 11.5699 79.8969 11.7888C79.4132 12.0077 78.8602 12.1172 78.2379 12.1172ZM89.3011 9.50977C88.9574 9.50977 88.6429 9.42578 88.3578 9.25781C88.0726 9.08984 87.846 8.86328 87.6781 8.57812C87.5101 8.29297 87.4261 7.97852 87.4261 7.63477C87.4261 7.28711 87.5101 6.97168 87.6781 6.68848C87.846 6.40527 88.0726 6.17969 88.3578 6.01172C88.6429 5.84375 88.9574 5.75977 89.3011 5.75977C89.6488 5.75977 89.9642 5.84375 90.2474 6.01172C90.5306 6.17969 90.7562 6.40527 90.9242 6.68848C91.0921 6.97168 91.1761 7.28711 91.1761 7.63477C91.1761 7.97852 91.0921 8.29297 90.9242 8.57812C90.7562 8.86328 90.5306 9.08984 90.2474 9.25781C89.9642 9.42578 89.6488 9.50977 89.3011 9.50977ZM100.744 3.26953V12H99.191V4.66358H99.1324L97.0948 6.1289V4.63828L99.0143 3.26953H100.744ZM106.177 12.1172C105.471 12.1172 104.869 11.9407 104.369 11.5877C103.87 11.2348 103.488 10.7253 103.222 10.0593C102.957 9.39324 102.824 8.58668 102.824 7.63958C102.824 6.69637 102.958 5.89055 103.224 5.22212C103.491 4.5537 103.874 4.04163 104.373 3.68591C104.872 3.3302 105.473 3.15234 106.177 3.15234C106.881 3.15234 107.483 3.33043 107.984 3.6866C108.486 4.04277 108.868 4.55484 109.133 5.22281C109.398 5.89078 109.53 6.6968 109.53 7.64088C109.53 8.58496 109.398 9.39054 109.135 10.0576C108.872 10.7247 108.49 11.2348 107.991 11.5877C107.492 11.9407 106.887 12.1172 106.177 12.1172ZM106.177 10.8028C106.558 10.8028 106.881 10.6789 107.145 10.4311C107.41 10.1833 107.611 9.82395 107.75 9.35309C107.889 8.88223 107.958 8.31132 107.958 7.64036C107.958 6.96585 107.889 6.39156 107.75 5.91749C107.611 5.44343 107.41 5.08179 107.145 4.83257C106.88 4.58335 106.558 4.45874 106.178 4.45874C105.798 4.45874 105.476 4.58397 105.21 4.83444C104.945 5.08491 104.743 5.44655 104.604 5.91937C104.466 6.39218 104.396 6.96585 104.396 7.64036C104.396 8.31132 104.465 8.88223 104.603 9.35309C104.741 9.82395 104.943 10.1833 105.208 10.4311C105.474 10.6789 105.797 10.8028 106.177 10.8028ZM112.647 10.8115C112.383 10.8115 112.161 10.7213 111.979 10.541C111.797 10.3607 111.706 10.1394 111.706 9.87704C111.706 9.61469 111.797 9.39337 111.979 9.21306C112.161 9.03275 112.383 8.94259 112.647 8.94259C112.911 8.94259 113.134 9.03275 113.315 9.21306C113.497 9.39337 113.588 9.61469 113.588 9.87704C113.588 10.1394 113.497 10.3607 113.315 10.541C113.134 10.7213 112.911 10.8115 112.647 10.8115ZM112.647 6.3328C112.383 6.3328 112.161 6.24265 111.979 6.06233C111.797 5.88202 111.706 5.6607 111.706 5.39835C111.706 5.13601 111.797 4.91469 111.979 4.73437C112.161 4.55406 112.383 4.46391 112.647 4.46391C112.911 4.46391 113.134 4.55406 113.315 4.73437C113.497 4.91469 113.588 5.13601 113.588 5.39835C113.588 5.6607 113.497 5.88202 113.315 6.06233C113.134 6.24265 112.911 6.3328 112.647 6.3328ZM118.977 12.1172C118.364 12.1172 117.821 12.0121 117.347 11.8021C116.872 11.592 116.497 11.3005 116.222 10.9275C115.947 10.5545 115.803 10.1228 115.79 9.63235H117.367C117.382 9.87032 117.461 10.0772 117.604 10.2531C117.746 10.429 117.937 10.5646 118.175 10.6601C118.414 10.7556 118.68 10.8033 118.974 10.8033C119.288 10.8033 119.565 10.7486 119.806 10.6392C120.047 10.5299 120.237 10.3768 120.375 10.1801C120.513 9.98337 120.582 9.75641 120.582 9.49922C120.582 9.23203 120.512 8.99731 120.372 8.79504C120.232 8.59277 120.031 8.43418 119.769 8.31925C119.507 8.20433 119.191 8.14687 118.82 8.14687H118.046V6.9375H118.82C119.122 6.9375 119.389 6.88407 119.62 6.77719C119.851 6.67032 120.031 6.52137 120.16 6.33035C120.289 6.13934 120.353 5.91594 120.353 5.66015C120.353 5.41328 120.297 5.19788 120.185 5.01398C120.073 4.83007 119.915 4.68663 119.71 4.58366C119.506 4.48069 119.267 4.42921 118.993 4.42921C118.724 4.42921 118.476 4.47729 118.249 4.57346C118.021 4.66964 117.837 4.80573 117.696 4.98175C117.556 5.15776 117.482 5.36937 117.474 5.61656H115.969C115.979 5.1314 116.119 4.70375 116.389 4.33359C116.659 3.96344 117.021 3.67402 117.477 3.46535C117.932 3.25668 118.443 3.15234 119.008 3.15234C119.587 3.15234 120.092 3.26172 120.522 3.48047C120.952 3.69922 121.284 3.99125 121.52 4.35656C121.756 4.72187 121.873 5.12562 121.873 5.56781C121.873 6.05718 121.729 6.46847 121.442 6.80168C121.154 7.13488 120.774 7.35453 120.302 7.46063V7.52672C120.708 7.5825 121.052 7.70363 121.333 7.89012C121.614 8.0766 121.827 8.31387 121.972 8.60192C122.117 8.88996 122.19 9.21547 122.19 9.57844C122.19 10.0677 122.052 10.5036 121.776 10.8864C121.5 11.2691 121.12 11.5699 120.636 11.7888C120.152 12.0077 119.599 12.1172 118.977 12.1172ZM127.354 12.1172C126.648 12.1172 126.045 11.9407 125.546 11.5877C125.047 11.2348 124.665 10.7253 124.399 10.0593C124.134 9.39324 124.001 8.58668 124.001 7.63958C124.001 6.69637 124.135 5.89055 124.401 5.22212C124.668 4.5537 125.051 4.04163 125.55 3.68591C126.049 3.3302 126.65 3.15234 127.354 3.15234C128.058 3.15234 128.66 3.33043 129.161 3.6866C129.663 4.04277 130.045 4.55484 130.31 5.22281C130.575 5.89078 130.707 6.6968 130.707 7.64088C130.707 8.58496 130.575 9.39054 130.312 10.0576C130.049 10.7247 129.667 11.2348 129.168 11.5877C128.669 11.9407 128.064 12.1172 127.354 12.1172ZM127.354 10.8028C127.735 10.8028 128.058 10.6789 128.322 10.4311C128.587 10.1833 128.788 9.82395 128.927 9.35309C129.066 8.88223 129.135 8.31132 129.135 7.64036C129.135 6.96585 129.066 6.39156 128.927 5.91749C128.788 5.44343 128.587 5.08179 128.322 4.83257C128.057 4.58335 127.735 4.45874 127.355 4.45874C126.975 4.45874 126.653 4.58397 126.387 4.83444C126.122 5.08491 125.92 5.44655 125.781 5.91937C125.643 6.39218 125.573 6.96585 125.573 7.64036C125.573 8.31132 125.642 8.88223 125.78 9.35309C125.918 9.82395 126.12 10.1833 126.385 10.4311C126.651 10.6789 126.974 10.8028 127.354 10.8028ZM135.828 12L138.875 3.26953H140.865L143.976 12H142.26L140.71 7.46575C140.559 6.99639 140.401 6.4662 140.236 5.87519C140.071 5.28417 139.888 4.61054 139.689 3.85429H140.018C139.824 4.61554 139.647 5.29417 139.488 5.89019C139.329 6.4862 139.179 7.01139 139.038 7.46575L137.539 12H135.828ZM137.603 9.83671V8.57719H142.201V9.83671H137.603ZM145.744 12V3.26953H148.102L149.761 7.77754C149.817 7.94441 149.881 8.15933 149.954 8.4223C150.026 8.68527 150.1 8.96905 150.177 9.27366C150.253 9.57826 150.325 9.87592 150.393 10.1666C150.461 10.4573 150.518 10.7145 150.565 10.9383H150.249C150.298 10.722 150.356 10.4698 150.423 10.1816C150.49 9.89342 150.562 9.59639 150.639 9.29053C150.715 8.98468 150.79 8.69839 150.862 8.43167C150.935 8.16496 151 7.94691 151.056 7.77754L152.692 3.26953H155.056V12H153.494V7.59373C153.494 7.40701 153.497 7.18049 153.501 6.91416C153.506 6.64783 153.513 6.3624 153.521 6.05787C153.529 5.75335 153.536 5.44561 153.543 5.13468C153.551 4.82374 153.556 4.52906 153.558 4.25062H153.667C153.589 4.55671 153.504 4.8712 153.413 5.19409C153.322 5.51698 153.232 5.8301 153.142 6.13346C153.052 6.43682 152.966 6.71455 152.885 6.96666C152.804 7.21877 152.735 7.42779 152.677 7.59373L151.064 12H149.736L148.098 7.59373C148.04 7.43029 147.972 7.22439 147.893 6.97604C147.813 6.72768 147.728 6.45307 147.637 6.15221C147.545 5.85135 147.453 5.53823 147.36 5.21284C147.267 4.88745 147.176 4.56671 147.087 4.25062H147.215C147.22 4.51156 147.227 4.79499 147.234 5.10093C147.241 5.40686 147.248 5.71397 147.255 6.02225C147.261 6.33053 147.268 6.62096 147.274 6.89353C147.28 7.16611 147.283 7.39951 147.283 7.59373V12H145.744Z" fill="#707973"/>
<path d="M6.74627 38.1585C5.87809 38.1585 5.07489 38.0145 4.33669 37.7265C3.59848 37.4385 2.95832 37.0351 2.41621 36.5164C1.87409 35.9977 1.45267 35.3891 1.15193 34.6907C0.851196 33.9923 0.700828 33.2284 0.700828 32.399C0.700828 31.5697 0.851198 30.8062 1.15194 30.1088C1.45268 29.4113 1.87469 28.8024 2.41799 28.282C2.96128 27.7617 3.60038 27.3582 4.33528 27.0715C5.07018 26.7848 5.87249 26.6415 6.74221 26.6415C7.6131 26.6415 8.41437 26.784 9.14602 27.069C9.87766 27.354 10.5141 27.7552 11.0555 28.2726C11.5968 28.7899 12.0178 29.399 12.3185 30.0996C12.6193 30.8003 12.7697 31.5672 12.7697 32.4004C12.7697 33.2336 12.6193 34.0005 12.3186 34.7012C12.0178 35.4019 11.5968 36.0108 11.0555 36.5279C10.5141 37.0449 9.87766 37.446 9.14602 37.731C8.41437 38.016 7.61446 38.1585 6.74627 38.1585ZM6.74211 36.3423C7.30779 36.3423 7.82887 36.2451 8.30538 36.0508C8.78188 35.8564 9.19715 35.5818 9.55117 35.2271C9.9052 34.8724 10.181 34.4553 10.3787 33.9758C10.5763 33.4963 10.6752 32.9696 10.6752 32.3958C10.6752 31.822 10.5769 31.2971 10.3803 30.8212C10.1836 30.3453 9.9081 29.9297 9.55364 29.5745C9.19917 29.2193 8.78341 28.9443 8.30637 28.7497C7.82933 28.555 7.30797 28.4577 6.7423 28.4577C6.17663 28.4577 5.65416 28.5551 5.1749 28.7501C4.69564 28.9451 4.27798 29.2205 3.92191 29.5762C3.56584 29.932 3.28905 30.3482 3.09156 30.8248C2.89406 31.3015 2.79531 31.825 2.79531 32.3954C2.79531 32.9658 2.89384 33.4908 3.09091 33.9703C3.28798 34.4498 3.56417 34.8685 3.91947 35.2264C4.27476 35.5843 4.69261 35.8598 5.17301 36.0528C5.65341 36.2458 6.17644 36.3423 6.74211 36.3423ZM14.7874 38V29.457H16.695V31.8044L16.4694 31.1221C16.7175 30.5416 17.1186 30.1015 17.6728 29.802C18.2269 29.5025 18.91 29.3527 19.7221 29.3527V31.2571C19.6364 31.2451 19.5577 31.236 19.4861 31.23C19.4146 31.224 19.3426 31.221 19.2703 31.221C18.5127 31.221 17.9095 31.4412 17.4607 31.8818C17.0119 32.3223 16.7874 32.9822 16.7874 33.8612V38H14.7874ZM25.2103 41.2083C24.4206 41.2083 23.6518 41.106 22.9037 40.9014C22.1557 40.6969 21.5375 40.3947 21.0492 39.9949L21.9448 38.4921C22.3233 38.8052 22.7974 39.0554 23.3672 39.2426C23.937 39.4297 24.517 39.5233 25.107 39.5233C26.0487 39.5233 26.7376 39.3079 27.1737 38.8772C27.6098 38.4464 27.8279 37.7984 27.8279 36.9331V35.403L27.9879 33.4771L27.9203 31.5372V29.457H29.8279V36.7018C29.8279 38.2492 29.4328 39.3871 28.6428 40.1156C27.8527 40.844 26.7086 41.2083 25.2103 41.2083ZM24.9661 37.6175C24.1465 37.6175 23.4097 37.4442 22.7558 37.0975C22.1019 36.7509 21.5845 36.2675 21.2038 35.6474C20.8231 35.0274 20.6327 34.304 20.6327 33.4771C20.6327 32.6503 20.8231 31.9268 21.2038 31.3068C21.5845 30.6867 22.1019 30.206 22.7558 29.8647C23.4097 29.5234 24.1465 29.3527 24.9661 29.3527C25.6863 29.3527 26.3354 29.4974 26.9137 29.7868C27.4919 30.0761 27.954 30.5259 28.3001 31.1359C28.6463 31.746 28.8193 32.5264 28.8193 33.4771C28.8193 34.4278 28.6463 35.2082 28.3001 35.8183C27.954 36.4283 27.4919 36.8807 26.9137 37.1754C26.3354 37.4702 25.6863 37.6175 24.9661 37.6175ZM25.2574 35.916C25.7683 35.916 26.2193 35.8132 26.6105 35.6077C27.0017 35.4021 27.3077 35.116 27.5286 34.7494C27.7494 34.3829 27.8599 33.9588 27.8599 33.4771C27.8599 32.9941 27.7494 32.5696 27.5286 32.2037C27.3077 31.8378 27.0017 31.5548 26.6105 31.3546C26.2193 31.1543 25.7683 31.0542 25.2574 31.0542C24.7571 31.0542 24.3088 31.1543 23.9123 31.3546C23.5158 31.5548 23.2067 31.8378 22.9852 32.2037C22.7636 32.5696 22.6528 32.9941 22.6528 33.4771C22.6528 33.9588 22.7636 34.3829 22.9852 34.7494C23.2067 35.116 23.5158 35.4021 23.9123 35.6077C24.3088 35.8132 24.7571 35.916 25.2574 35.916ZM37.7057 38V36.2669L37.6029 35.9066V32.879C37.6029 32.2945 37.4258 31.8391 37.0716 31.513C36.7174 31.1868 36.1819 31.0237 35.4652 31.0237C34.987 31.0237 34.5173 31.099 34.0563 31.2495C33.5952 31.4 33.2021 31.6052 32.877 31.865L32.1011 30.4143C32.5574 30.0665 33.1034 29.8026 33.7391 29.6226C34.3748 29.4427 35.034 29.3527 35.7167 29.3527C36.9514 29.3527 37.9077 29.6492 38.5858 30.2423C39.2639 30.8353 39.6029 31.7511 39.6029 32.9895V38H37.7057ZM35.0306 38.1043C34.381 38.1043 33.8161 37.9955 33.3361 37.7781C32.8561 37.5606 32.4865 37.2581 32.2272 36.8707C31.968 36.4832 31.8383 36.0435 31.8383 35.5514C31.8383 35.0697 31.9545 34.6385 32.1868 34.2577C32.419 33.877 32.7963 33.5737 33.3187 33.3478C33.841 33.1219 34.5323 33.009 35.3926 33.009H37.8713V34.335H35.5367C34.8555 34.335 34.3967 34.4451 34.1603 34.6653C33.924 34.8855 33.8058 35.1554 33.8058 35.475C33.8058 35.8356 33.9505 36.122 34.2398 36.3343C34.5291 36.5466 34.9279 36.6527 35.436 36.6527C35.9321 36.6527 36.3747 36.5419 36.7638 36.3203C37.1529 36.0988 37.4326 35.7697 37.6029 35.3331L37.9415 36.5305C37.7471 37.0326 37.4027 37.4204 36.9083 37.6939C36.4138 37.9675 35.788 38.1043 35.0306 38.1043ZM42.1634 38V29.457H44.071V31.7662L43.7313 31.0581C44.0262 30.5082 44.4597 30.0865 45.0317 29.793C45.6038 29.4994 46.2611 29.3527 47.0036 29.3527C47.6942 29.3527 48.3068 29.4864 48.8415 29.7537C49.3762 30.0211 49.7986 30.4312 50.1086 30.9839C50.4186 31.5367 50.5737 32.2439 50.5737 33.1055V38H48.5737V33.3673C48.5737 32.6097 48.3964 32.0443 48.0419 31.671C47.6873 31.2977 47.1869 31.111 46.5404 31.111C46.0722 31.111 45.6574 31.2065 45.2962 31.3974C44.935 31.5884 44.6559 31.8722 44.4589 32.249C44.2619 32.6257 44.1634 33.1024 44.1634 33.679V38H42.1634ZM53.1234 38V29.457H55.1234V38H53.1234ZM54.1234 28.0425C53.75 28.0425 53.4426 27.9268 53.2012 27.6956C52.9597 27.4643 52.839 27.1802 52.839 26.8433C52.839 26.5064 52.9597 26.2223 53.2012 25.991C53.4426 25.7598 53.75 25.6441 54.1234 25.6441C54.4969 25.6441 54.8043 25.7537 55.0457 25.973C55.2871 26.1922 55.4079 26.4703 55.4079 26.8072C55.4079 27.1575 55.2895 27.451 55.0527 27.6876C54.8159 27.9242 54.5062 28.0425 54.1234 28.0425ZM61.6574 38.1043C60.7662 38.1043 59.9707 37.9169 59.271 37.5422C58.5712 37.1675 58.0233 36.6501 57.627 35.9899C57.2308 35.3298 57.0327 34.5756 57.0327 33.7274C57.0327 32.87 57.2308 32.1138 57.627 31.459C58.0233 30.8042 58.5712 30.2895 59.271 29.9148C59.9707 29.54 60.7662 29.3527 61.6574 29.3527C62.4919 29.3527 63.2274 29.5217 63.864 29.8596C64.5006 30.1975 64.9815 30.6929 65.3066 31.3457L63.7743 32.248C63.5187 31.8427 63.2068 31.5424 62.8387 31.3471C62.4706 31.1518 62.0714 31.0542 61.6414 31.0542C61.1518 31.0542 60.7111 31.1623 60.3192 31.3786C59.9274 31.5948 59.6183 31.9025 59.3921 32.3018C59.1659 32.7011 59.0528 33.1763 59.0528 33.7274C59.0528 34.2786 59.1659 34.7542 59.3921 35.1541C59.6183 35.5541 59.9274 35.8622 60.3192 36.0784C60.7111 36.2946 61.1518 36.4028 61.6414 36.4028C62.0714 36.4028 62.4706 36.3075 62.8387 36.1168C63.2068 35.9262 63.5187 35.6236 63.7743 35.209L65.3066 36.1113C64.9815 36.7548 64.5006 37.2478 63.864 37.5904C63.2274 37.933 62.4919 38.1043 61.6574 38.1043ZM74.292 38L70.5826 26.8H72.7292L76.0432 36.9247H74.9688L78.417 26.8H80.3426L83.6803 36.9247H82.6441L86.0303 26.8H88.0123L84.3029 38H82.0938L79.0334 28.8629H79.6199L76.515 38H74.292ZM94.1377 38V36.2669L94.0349 35.9066V32.879C94.0349 32.2945 93.8578 31.8391 93.5036 31.513C93.1494 31.1868 92.6139 31.0237 91.8972 31.0237C91.419 31.0237 90.9493 31.099 90.4883 31.2495C90.0272 31.4 89.6341 31.6052 89.309 31.865L88.5331 30.4143C88.9894 30.0665 89.5354 29.8026 90.1711 29.6226C90.8068 29.4427 91.466 29.3527 92.1487 29.3527C93.3834 29.3527 94.3397 29.6492 95.0178 30.2423C95.6959 30.8353 96.0349 31.7511 96.0349 32.9895V38H94.1377ZM91.4626 38.1043C90.813 38.1043 90.2481 37.9955 89.7681 37.7781C89.2881 37.5606 88.9185 37.2581 88.6592 36.8707C88.4 36.4832 88.2703 36.0435 88.2703 35.5514C88.2703 35.0697 88.3865 34.6385 88.6188 34.2577C88.851 33.877 89.2283 33.5737 89.7507 33.3478C90.273 33.1219 90.9643 33.009 91.8246 33.009H94.3033V34.335H91.9687C91.2875 34.335 90.8287 34.4451 90.5923 34.6653C90.356 34.8855 90.2378 35.1554 90.2378 35.475C90.2378 35.8356 90.3825 36.122 90.6718 36.3343C90.9611 36.5466 91.3599 36.6527 91.868 36.6527C92.3641 36.6527 92.8067 36.5419 93.1958 36.3203C93.5849 36.0988 93.8646 35.7697 94.0349 35.3331L94.3735 36.5305C94.1791 37.0326 93.8347 37.4204 93.3403 37.6939C92.8458 37.9675 92.22 38.1043 91.4626 38.1043ZM101.239 38.1043C100.521 38.1043 99.8333 38.0127 99.1776 37.8294C98.5219 37.6462 98.0026 37.422 97.6196 37.1567L98.3887 35.6364C98.7675 35.8817 99.2247 36.083 99.7601 36.2403C100.295 36.3975 100.829 36.4761 101.361 36.4761C101.993 36.4761 102.45 36.3924 102.73 36.2248C103.01 36.0573 103.15 35.8259 103.15 35.5308C103.15 35.3006 103.054 35.1237 102.864 35C102.673 34.8763 102.422 34.7822 102.109 34.7177C101.796 34.6532 101.452 34.5946 101.076 34.542C100.7 34.4894 100.324 34.4174 99.9475 34.326C99.5709 34.2346 99.2263 34.1023 98.9137 33.9288C98.6011 33.7554 98.3495 33.5176 98.1589 33.2155C97.9683 32.9134 97.873 32.5163 97.873 32.0243C97.873 31.4882 98.027 31.0194 98.3352 30.6178C98.6433 30.2162 99.0773 29.905 99.6372 29.6841C100.197 29.4632 100.861 29.3527 101.629 29.3527C102.204 29.3527 102.785 29.4183 103.374 29.5496C103.963 29.6809 104.45 29.8645 104.834 30.1006L104.065 31.6208C103.664 31.3755 103.256 31.2075 102.843 31.1168C102.429 31.0262 102.022 30.9808 101.621 30.9808C101.014 30.9808 100.562 31.0699 100.267 31.2481C99.9715 31.4263 99.8239 31.657 99.8239 31.9401C99.8239 32.1889 99.9192 32.3777 100.11 32.5068C100.3 32.6358 100.552 32.7372 100.865 32.811C101.177 32.8848 101.521 32.948 101.897 33.0006C102.273 33.0533 102.649 33.1256 103.025 33.2177C103.401 33.3097 103.745 33.4401 104.058 33.6089C104.37 33.7777 104.622 34.0108 104.813 34.3083C105.003 34.6057 105.099 34.9959 105.099 35.4786C105.099 36.0106 104.943 36.473 104.63 36.866C104.318 37.259 103.875 37.5636 103.301 37.7799C102.726 37.9961 102.039 38.1043 101.239 38.1043ZM110.042 38.1043C109.106 38.1043 108.381 37.8624 107.867 37.3786C107.353 36.8947 107.096 36.1802 107.096 35.2349V27.5726H109.096V35.189C109.096 35.5949 109.201 35.9097 109.41 36.1334C109.619 36.357 109.913 36.4688 110.294 36.4688C110.733 36.4688 111.103 36.3517 111.402 36.1174L111.974 37.5428C111.734 37.7306 111.442 37.8712 111.099 37.9644C110.756 38.0577 110.404 38.1043 110.042 38.1043ZM105.701 31.0521V29.457H111.39V31.0521H105.701ZM117.342 38.1043C116.396 38.1043 115.567 37.9162 114.856 37.5401C114.145 37.164 113.594 36.6459 113.203 35.9858C112.812 35.3257 112.617 34.5729 112.617 33.7274C112.617 32.8793 112.807 32.1254 113.188 31.466C113.569 30.8066 114.094 30.2895 114.762 29.9148C115.43 29.54 116.188 29.3527 117.033 29.3527C117.87 29.3527 118.613 29.535 119.265 29.8995C119.917 30.2641 120.429 30.7777 120.802 31.4404C121.175 32.1031 121.362 32.884 121.362 33.7832C121.362 33.8647 121.359 33.9596 121.353 34.0679C121.347 34.1761 121.338 34.2756 121.328 34.3665H114.216V33.0404H120.271L119.483 33.4626C119.492 32.9727 119.391 32.5404 119.18 32.1657C118.969 31.7911 118.681 31.4976 118.314 31.2853C117.947 31.073 117.522 30.9669 117.038 30.9669C116.553 30.9669 116.125 31.073 115.753 31.2853C115.381 31.4976 115.092 31.7934 114.887 32.1727C114.681 32.552 114.578 32.9959 114.578 33.5044V33.8255C114.578 34.3382 114.695 34.7905 114.928 35.1826C115.161 35.5746 115.49 35.8791 115.916 36.096C116.342 36.3129 116.836 36.4214 117.398 36.4214C117.877 36.4214 118.308 36.3448 118.69 36.1917C119.072 36.0386 119.412 35.8043 119.709 35.4888L120.789 36.7241C120.4 37.1735 119.914 37.5159 119.332 37.7512C118.75 37.9866 118.086 38.1043 117.342 38.1043Z" fill="#191C1D"/>
</svg>
