<svg width="380" height="207" viewBox="0 0 380 207" fill="none" xmlns="http://www.w3.org/2000/svg">
<g filter="url(#filter0_d_3_557)">
<rect x="12" y="8" width="356" height="183" rx="8" fill="white" shape-rendering="crispEdges"/>
<rect x="12.5" y="8.5" width="355" height="182" rx="7.5" stroke="#BFC9C1" shape-rendering="crispEdges"/>
<mask id="path-3-inside-1_3_557" fill="white">
<path d="M37 33H343V98H37V33Z"/>
</mask>
<path d="M343 98V97H37V98V99H343V98Z" fill="#E1E3E4" mask="url(#path-3-inside-1_3_557)"/>
<path d="M37.4773 37.598V36.2727H44.4403V37.598H41.7429V45H40.1747V37.598H37.4773ZM46.3827 45V36.2727H49.6554C50.3259 36.2727 50.8884 36.3892 51.3429 36.6222C51.8003 36.8551 52.1455 37.1818 52.3784 37.6023C52.6142 38.0199 52.7321 38.5071 52.7321 39.0639C52.7321 39.6236 52.6128 40.1094 52.3741 40.5213C52.1384 40.9304 51.7903 41.2472 51.3301 41.4716C50.8699 41.6932 50.3045 41.804 49.6341 41.804H47.3031V40.4915H49.421C49.8131 40.4915 50.1341 40.4375 50.3841 40.3295C50.6341 40.2187 50.8188 40.0582 50.9381 39.848C51.0602 39.6349 51.1213 39.3736 51.1213 39.0639C51.1213 38.7543 51.0602 38.4901 50.9381 38.2713C50.8159 38.0497 50.6298 37.8821 50.3798 37.7685C50.1298 37.652 49.8074 37.5938 49.4125 37.5938H47.9636V45H46.3827ZM50.8912 41.0455L53.0517 45H51.2875L49.1653 41.0455H50.8912ZM55.9081 45H54.2206L57.293 36.2727H59.2447L62.3214 45H60.6339L58.303 38.0625H58.2348L55.9081 45ZM55.9635 41.5781H60.5658V42.848H55.9635V41.5781ZM71.2428 36.2727V45H69.8366L65.7244 39.0554H65.6519V45H64.071V36.2727H65.4857L69.5937 42.2216H69.6704V36.2727H71.2428ZM78.3084 38.6719C78.2686 38.2997 78.101 38.0099 77.8055 37.8026C77.5129 37.5952 77.1322 37.4915 76.6635 37.4915C76.334 37.4915 76.0513 37.5412 75.8155 37.6406C75.5797 37.7401 75.3993 37.875 75.2743 38.0455C75.1493 38.2159 75.0854 38.4105 75.0825 38.6293C75.0825 38.8111 75.1237 38.9687 75.2061 39.1023C75.2913 39.2358 75.4064 39.3494 75.5513 39.4432C75.6962 39.5341 75.8567 39.6108 76.0328 39.6733C76.209 39.7358 76.3865 39.7884 76.5655 39.831L77.3837 40.0355C77.7132 40.1122 78.03 40.2159 78.334 40.3466C78.6408 40.4773 78.9149 40.642 79.1564 40.8409C79.4007 41.0398 79.5939 41.2798 79.7359 41.5611C79.878 41.8423 79.949 42.1719 79.949 42.5497C79.949 43.0611 79.8183 43.5114 79.557 43.9006C79.2956 44.2869 78.9178 44.5895 78.4234 44.8082C77.932 45.0241 77.3368 45.1321 76.6379 45.1321C75.959 45.1321 75.3695 45.027 74.8695 44.8168C74.3723 44.6065 73.9831 44.2997 73.7018 43.8963C73.4234 43.4929 73.2729 43.0014 73.2501 42.4219H74.8055C74.8283 42.7259 74.922 42.9787 75.0868 43.1804C75.2516 43.3821 75.4661 43.5327 75.7303 43.6321C75.9973 43.7315 76.2956 43.7812 76.6251 43.7812C76.9689 43.7812 77.27 43.7301 77.5286 43.6278C77.7899 43.5227 77.9945 43.3778 78.1422 43.1932C78.2899 43.0057 78.3652 42.7869 78.368 42.5369C78.3652 42.3097 78.2984 42.1222 78.1678 41.9744C78.0371 41.8239 77.8538 41.6989 77.618 41.5994C77.3851 41.4972 77.1124 41.4062 76.7999 41.3267L75.807 41.071C75.0882 40.8864 74.52 40.6065 74.1024 40.2315C73.6876 39.8537 73.4803 39.3523 73.4803 38.7273C73.4803 38.2131 73.6195 37.7628 73.8979 37.3764C74.1791 36.9901 74.5612 36.6903 75.0442 36.4773C75.5271 36.2614 76.074 36.1534 76.6848 36.1534C77.3041 36.1534 77.8467 36.2614 78.3126 36.4773C78.7814 36.6903 79.1493 36.9872 79.4163 37.3679C79.6834 37.7457 79.8212 38.1804 79.8297 38.6719H78.3084ZM82.9386 45H81.2511L84.3235 36.2727H86.2752L89.3519 45H87.6644L85.3335 38.0625H85.2653L82.9386 45ZM82.994 41.5781H87.5962V42.848H82.994V41.5781ZM98.1614 39.2173H96.5677C96.5222 38.956 96.4384 38.7244 96.3163 38.5227C96.1941 38.3182 96.0421 38.1449 95.8603 38.0028C95.6785 37.8608 95.4711 37.7543 95.2381 37.6832C95.008 37.6094 94.7594 37.5724 94.4924 37.5724C94.018 37.5724 93.5975 37.6918 93.231 37.9304C92.8646 38.1662 92.5776 38.5128 92.3702 38.9702C92.1629 39.4247 92.0592 39.9801 92.0592 40.6364C92.0592 41.304 92.1629 41.8665 92.3702 42.3239C92.5805 42.7784 92.8674 43.1222 93.231 43.3551C93.5975 43.5852 94.0165 43.7003 94.4881 43.7003C94.7495 43.7003 94.9938 43.6662 95.2211 43.598C95.4512 43.527 95.6572 43.4233 95.839 43.2869C96.0236 43.1506 96.1785 42.983 96.3035 42.7841C96.4313 42.5852 96.5194 42.358 96.5677 42.1023L98.1614 42.1108C98.1018 42.5256 97.9725 42.9148 97.7736 43.2784C97.5776 43.642 97.3205 43.9631 97.0023 44.2415C96.6842 44.517 96.312 44.733 95.8859 44.8892C95.4597 45.0426 94.9867 45.1193 94.4668 45.1193C93.6998 45.1193 93.0151 44.9418 92.4129 44.5866C91.8106 44.2315 91.3361 43.7188 90.9896 43.0483C90.643 42.3778 90.4697 41.5739 90.4697 40.6364C90.4697 39.696 90.6444 38.892 90.9938 38.2244C91.3433 37.554 91.8191 37.0412 92.4214 36.6861C93.0236 36.331 93.7055 36.1534 94.4668 36.1534C94.9526 36.1534 95.4043 36.2216 95.8219 36.358C96.2396 36.4943 96.6117 36.6946 96.9384 36.9588C97.2651 37.2202 97.5336 37.5412 97.7438 37.9219C97.9569 38.2997 98.0961 38.7315 98.1614 39.2173ZM99.8257 37.598V36.2727H106.789V37.598H104.091V45H102.523V37.598H99.8257ZM110.312 36.2727V45H108.731V36.2727H110.312ZM120.422 40.6364C120.422 41.5767 120.246 42.3821 119.894 43.0526C119.545 43.7202 119.067 44.2315 118.462 44.5866C117.86 44.9418 117.177 45.1193 116.412 45.1193C115.648 45.1193 114.964 44.9418 114.358 44.5866C113.756 44.2287 113.279 43.7159 112.927 43.0483C112.577 42.3778 112.402 41.5739 112.402 40.6364C112.402 39.696 112.577 38.892 112.927 38.2244C113.279 37.554 113.756 37.0412 114.358 36.6861C114.964 36.331 115.648 36.1534 116.412 36.1534C117.177 36.1534 117.86 36.331 118.462 36.6861C119.067 37.0412 119.545 37.554 119.894 38.2244C120.246 38.892 120.422 39.696 120.422 40.6364ZM118.833 40.6364C118.833 39.9744 118.729 39.4162 118.522 38.9616C118.317 38.5043 118.033 38.1591 117.67 37.9261C117.306 37.6903 116.887 37.5724 116.412 37.5724C115.938 37.5724 115.519 37.6903 115.155 37.9261C114.792 38.1591 114.506 38.5043 114.299 38.9616C114.094 39.4162 113.992 39.9744 113.992 40.6364C113.992 41.2983 114.094 41.858 114.299 42.3153C114.506 42.7699 114.792 43.1151 115.155 43.3509C115.519 43.5838 115.938 43.7003 116.412 43.7003C116.887 43.7003 117.306 43.5838 117.67 43.3509C118.033 43.1151 118.317 42.7699 118.522 42.3153C118.729 41.858 118.833 41.2983 118.833 40.6364ZM129.689 36.2727V45H128.283L124.17 39.0554H124.098V45H122.517V36.2727H123.932L128.04 42.2216H128.116V36.2727H129.689ZM137.169 36.2727V45H135.588V36.2727H137.169ZM142.438 45H139.481V36.2727H142.498C143.365 36.2727 144.109 36.4474 144.731 36.7969C145.356 37.1435 145.836 37.642 146.171 38.2926C146.507 38.9432 146.674 39.7216 146.674 40.6278C146.674 41.5369 146.505 42.3182 146.167 42.9716C145.832 43.625 145.348 44.1264 144.714 44.4759C144.083 44.8253 143.325 45 142.438 45ZM141.062 43.6321H142.362C142.97 43.6321 143.477 43.5213 143.883 43.2997C144.289 43.0753 144.595 42.7415 144.799 42.2983C145.004 41.8523 145.106 41.2955 145.106 40.6278C145.106 39.9602 145.004 39.4062 144.799 38.9659C144.595 38.5227 144.292 38.1918 143.892 37.973C143.494 37.7514 143 37.6406 142.409 37.6406H141.062V43.6321Z" fill="#404943"/>
<path d="M41.72 74V62.2H37.08V60H48.96V62.2H44.32V74H41.72ZM50.4113 74V60H56.1513C58.0179 60 59.4779 60.44 60.5313 61.32C61.5979 62.2 62.1313 63.42 62.1313 64.98C62.1313 66.0067 61.8913 66.8933 61.4113 67.64C60.9313 68.3733 60.2446 68.94 59.3513 69.34C58.4713 69.7267 57.4113 69.92 56.1713 69.92H51.8513L53.0113 68.74V74H50.4113ZM59.5713 74L56.0313 68.92H58.8112L62.3713 74H59.5713ZM53.0113 69.02L51.8513 67.78H56.0513C57.1979 67.78 58.0579 67.5333 58.6312 67.04C59.2179 66.5467 59.5113 65.86 59.5113 64.98C59.5113 64.0867 59.2179 63.4 58.6312 62.92C58.0579 62.44 57.1979 62.2 56.0513 62.2H51.8513L53.0113 60.92V69.02ZM62.4495 74L68.3495 65.88V67.84L62.7295 60H65.6695L69.8495 65.8L68.6495 65.82L72.7895 60H75.6095L70.0295 67.7V65.82L75.9695 74H72.9695L68.5695 67.84H69.7495L65.4095 74H62.4495ZM76.3461 69.48V67.4H81.8461V69.48H76.3461ZM88.9414 74.2C87.7814 74.2 86.7747 74.0267 85.9214 73.68C85.0681 73.3333 84.4081 72.8467 83.9414 72.22C83.4747 71.58 83.2414 70.8333 83.2414 69.98C83.2414 69.1267 83.4681 68.4067 83.9214 67.82C84.3747 67.2333 85.0281 66.7867 85.8814 66.48C86.7347 66.1733 87.7547 66.02 88.9414 66.02C90.1281 66.02 91.1481 66.1733 92.0014 66.48C92.8681 66.7867 93.5281 67.24 93.9814 67.84C94.4481 68.4267 94.6814 69.14 94.6814 69.98C94.6814 70.8333 94.4414 71.58 93.9614 72.22C93.4947 72.8467 92.8281 73.3333 91.9614 73.68C91.1081 74.0267 90.1014 74.2 88.9414 74.2ZM88.9414 72.16C89.9014 72.16 90.6614 71.96 91.2214 71.56C91.7814 71.16 92.0614 70.6067 92.0614 69.9C92.0614 69.2067 91.7814 68.66 91.2214 68.26C90.6614 67.86 89.9014 67.66 88.9414 67.66C87.9814 67.66 87.2281 67.86 86.6814 68.26C86.1347 68.66 85.8614 69.2067 85.8614 69.9C85.8614 70.6067 86.1347 71.16 86.6814 71.56C87.2281 71.96 87.9814 72.16 88.9414 72.16ZM88.9414 65.78C89.7681 65.78 90.4214 65.6067 90.9014 65.26C91.3814 64.9 91.6214 64.42 91.6214 63.82C91.6214 63.1933 91.3747 62.7067 90.8814 62.36C90.3881 62.0133 89.7414 61.84 88.9414 61.84C88.1414 61.84 87.5014 62.0133 87.0214 62.36C86.5414 62.7067 86.3014 63.1933 86.3014 63.82C86.3014 64.42 86.5347 64.9 87.0014 65.26C87.4814 65.6067 88.1281 65.78 88.9414 65.78ZM88.9414 67.38C87.8614 67.38 86.9347 67.24 86.1614 66.96C85.3881 66.6667 84.7881 66.2467 84.3614 65.7C83.9481 65.14 83.7414 64.4733 83.7414 63.7C83.7414 62.9 83.9547 62.2133 84.3814 61.64C84.8214 61.0533 85.4347 60.6 86.2214 60.28C87.0081 59.96 87.9147 59.8 88.9414 59.8C89.9814 59.8 90.8947 59.96 91.6814 60.28C92.4681 60.6 93.0814 61.0533 93.5214 61.64C93.9614 62.2133 94.1814 62.9 94.1814 63.7C94.1814 64.4733 93.9681 65.14 93.5414 65.7C93.1281 66.2467 92.5281 66.6667 91.7414 66.96C90.9547 67.24 90.0214 67.38 88.9414 67.38ZM99.7883 74.2C99.0816 74.2 98.4083 74.1267 97.7683 73.98C97.1283 73.8333 96.5749 73.6067 96.1083 73.3L97.0683 71.34C97.4549 71.5933 97.8749 71.7733 98.3283 71.88C98.7816 71.9733 99.2483 72.02 99.7283 72.02C101.048 72.02 102.095 71.6133 102.868 70.8C103.642 69.9867 104.028 68.7867 104.028 67.2C104.028 66.9467 104.022 66.6533 104.008 66.32C103.995 65.9733 103.948 65.6267 103.868 65.28L104.668 66.16C104.442 66.7067 104.115 67.1667 103.688 67.54C103.262 67.9 102.762 68.1733 102.188 68.36C101.615 68.5467 100.982 68.64 100.288 68.64C99.3816 68.64 98.5616 68.4667 97.8283 68.12C97.1083 67.76 96.5349 67.26 96.1083 66.62C95.6816 65.9667 95.4683 65.2067 95.4683 64.34C95.4683 63.4067 95.6949 62.6067 96.1483 61.94C96.6016 61.26 97.2149 60.7333 97.9883 60.36C98.7749 59.9867 99.6416 59.8 100.588 59.8C101.868 59.8 102.955 60.0733 103.848 60.62C104.755 61.1533 105.448 61.9333 105.928 62.96C106.408 63.9867 106.648 65.2533 106.648 66.76C106.648 68.36 106.355 69.7133 105.768 70.82C105.195 71.9267 104.395 72.7667 103.368 73.34C102.342 73.9133 101.148 74.2 99.7883 74.2ZM100.788 66.6C101.348 66.6 101.842 66.5 102.268 66.3C102.695 66.0867 103.028 65.8 103.268 65.44C103.508 65.0667 103.628 64.6533 103.628 64.2C103.628 63.76 103.515 63.3667 103.288 63.02C103.062 62.66 102.735 62.3733 102.308 62.16C101.882 61.9467 101.355 61.84 100.728 61.84C100.195 61.84 99.7216 61.94 99.3083 62.14C98.8949 62.3267 98.5683 62.6 98.3283 62.96C98.1016 63.3067 97.9883 63.7267 97.9883 64.22C97.9883 64.9533 98.2416 65.5333 98.7483 65.96C99.2549 66.3867 99.9349 66.6 100.788 66.6ZM107.707 70.82V69.02L114.607 60H117.387L110.587 69.02L109.287 68.62H120.387V70.82H107.707ZM115.387 74V70.82L115.467 68.62V65.8H117.907V74H115.387ZM120.802 74V72.26L126.362 66.98C126.828 66.54 127.175 66.1533 127.402 65.82C127.628 65.4867 127.775 65.18 127.842 64.9C127.922 64.6067 127.962 64.3333 127.962 64.08C127.962 63.44 127.742 62.9467 127.302 62.6C126.862 62.24 126.215 62.06 125.362 62.06C124.682 62.06 124.062 62.18 123.502 62.42C122.955 62.66 122.482 63.0267 122.082 63.52L120.262 62.12C120.808 61.3867 121.542 60.82 122.462 60.42C123.395 60.0067 124.435 59.8 125.582 59.8C126.595 59.8 127.475 59.9667 128.222 60.3C128.982 60.62 129.562 61.08 129.962 61.68C130.375 62.28 130.582 62.9933 130.582 63.82C130.582 64.2733 130.522 64.7267 130.402 65.18C130.282 65.62 130.055 66.0867 129.722 66.58C129.388 67.0733 128.902 67.6267 128.262 68.24L123.482 72.78L122.942 71.8H131.122V74H120.802ZM132.245 69.48V67.4H137.745V69.48H132.245ZM137.83 74L144.13 60H146.69L153.01 74H150.29L144.87 61.38H145.91L140.51 74H137.83ZM140.73 70.76L141.43 68.72H148.99L149.69 70.76H140.73ZM154.69 74V61L155.83 62.18H151.73V60H157.29V74H154.69Z" fill="#191C1D"/>
<path d="M38.1667 135.833C37.8458 135.833 37.5712 135.719 37.3427 135.491C37.1142 135.262 37 134.988 37 134.667V126.5C37 126.179 37.1142 125.905 37.3427 125.676C37.5712 125.448 37.8458 125.333 38.1667 125.333H38.75V124.167H39.9167V125.333H44.5833V124.167H45.75V125.333H46.3333C46.6542 125.333 46.9288 125.448 47.1573 125.676C47.3858 125.905 47.5 126.179 47.5 126.5V134.667C47.5 134.988 47.3858 135.262 47.1573 135.491C46.9288 135.719 46.6542 135.833 46.3333 135.833H38.1667ZM38.1667 134.667H46.3333V128.833H38.1667V134.667ZM38.1667 127.667H46.3333V126.5H38.1667V127.667ZM38.1667 127.667V126.5V127.667Z" fill="#404943"/>
<path d="M55.332 134H53.1214V132.644H55.2533C55.8644 132.644 56.3745 132.533 56.7836 132.31C57.1928 132.087 57.4999 131.751 57.7051 131.303C57.9102 130.855 58.0128 130.296 58.0128 129.626C58.0128 128.959 57.9102 128.403 57.7049 127.959C57.4995 127.515 57.1959 127.181 56.794 126.959C56.392 126.736 55.8925 126.625 55.2955 126.625H53.0788V125.27H55.3906C56.2591 125.27 57.0038 125.444 57.6249 125.792C58.246 126.14 58.7237 126.64 59.0579 127.291C59.3921 127.942 59.5592 128.72 59.5592 129.626C59.5592 130.534 59.3918 131.316 59.0571 131.969C58.7223 132.623 58.2394 133.125 57.6085 133.475C56.9776 133.825 56.2187 134 55.332 134ZM53.9422 125.27V134H52.3775V125.27H53.9422ZM60.5834 134L63.631 125.27H65.6204L68.7322 134H67.0161L65.4662 129.466C65.3149 128.996 65.1567 128.466 64.9916 127.875C64.8264 127.284 64.6441 126.611 64.4448 125.854H64.7738C64.5798 126.616 64.4031 127.294 64.2439 127.89C64.0847 128.486 63.9346 129.011 63.7937 129.466L62.2944 134H60.5834ZM62.3586 131.837V130.577H66.957V131.837H62.3586ZM69.0587 126.587V125.27H76.0107V126.587H73.3208V134H71.7561V126.587H69.0587ZM77.9724 134V125.27H83.6429V126.587H79.5371V128.941H83.341V130.242H79.5371V132.682H83.6682V134H77.9724Z" fill="#404943"/>
<path d="M48.2273 154.182C48.2273 155.409 48.0057 156.47 47.5625 157.364C47.1193 158.258 46.5114 158.947 45.7386 159.432C44.9659 159.917 44.0833 160.159 43.0909 160.159C42.0985 160.159 41.2159 159.917 40.4432 159.432C39.6705 158.947 39.0625 158.258 38.6193 157.364C38.1761 156.47 37.9545 155.409 37.9545 154.182C37.9545 152.955 38.1761 151.894 38.6193 151C39.0625 150.106 39.6705 149.417 40.4432 148.932C41.2159 148.447 42.0985 148.205 43.0909 148.205C44.0833 148.205 44.9659 148.447 45.7386 148.932C46.5114 149.417 47.1193 150.106 47.5625 151C48.0057 151.894 48.2273 152.955 48.2273 154.182ZM46.8636 154.182C46.8636 153.174 46.6951 152.324 46.358 151.631C46.0246 150.938 45.572 150.413 45 150.057C44.4318 149.701 43.7955 149.523 43.0909 149.523C42.3864 149.523 41.7481 149.701 41.1761 150.057C40.608 150.413 40.1553 150.938 39.8182 151.631C39.4848 152.324 39.3182 153.174 39.3182 154.182C39.3182 155.189 39.4848 156.04 39.8182 156.733C40.1553 157.426 40.608 157.951 41.1761 158.307C41.7481 158.663 42.3864 158.841 43.0909 158.841C43.7955 158.841 44.4318 158.663 45 158.307C45.572 157.951 46.0246 157.426 46.358 156.733C46.6951 156.04 46.8636 155.189 46.8636 154.182ZM53.9602 160.182C53.142 160.182 52.4375 159.989 51.8466 159.602C51.2557 159.216 50.8011 158.684 50.483 158.006C50.1648 157.328 50.0057 156.553 50.0057 155.682C50.0057 154.795 50.1686 154.013 50.4943 153.335C50.8239 152.653 51.2822 152.121 51.8693 151.739C52.4602 151.352 53.1496 151.159 53.9375 151.159C54.5511 151.159 55.1042 151.273 55.5966 151.5C56.089 151.727 56.4924 152.045 56.8068 152.455C57.1212 152.864 57.3163 153.341 57.392 153.886H56.0511C55.9489 153.489 55.7216 153.136 55.3693 152.83C55.0208 152.519 54.5511 152.364 53.9602 152.364C53.4375 152.364 52.9792 152.5 52.5852 152.773C52.1951 153.042 51.8902 153.422 51.6705 153.915C51.4545 154.403 51.3466 154.977 51.3466 155.636C51.3466 156.311 51.4527 156.898 51.6648 157.398C51.8807 157.898 52.1837 158.286 52.5739 158.562C52.9678 158.839 53.4299 158.977 53.9602 158.977C54.3087 158.977 54.625 158.917 54.9091 158.795C55.1932 158.674 55.4337 158.5 55.6307 158.273C55.8277 158.045 55.9678 157.773 56.0511 157.455H57.392C57.3163 157.97 57.1288 158.434 56.8295 158.847C56.5341 159.256 56.142 159.581 55.6534 159.824C55.1686 160.062 54.6042 160.182 53.9602 160.182ZM63.1477 151.273V152.409H58.625V151.273H63.1477ZM59.9432 149.182H61.2841V157.5C61.2841 157.879 61.339 158.163 61.4489 158.352C61.5625 158.538 61.7064 158.663 61.8807 158.727C62.0587 158.788 62.2462 158.818 62.4432 158.818C62.5909 158.818 62.7121 158.811 62.8068 158.795C62.9015 158.777 62.9773 158.761 63.0341 158.75L63.3068 159.955C63.2159 159.989 63.089 160.023 62.9261 160.057C62.7633 160.095 62.5568 160.114 62.3068 160.114C61.928 160.114 61.5568 160.032 61.1932 159.869C60.8333 159.706 60.5341 159.458 60.2955 159.125C60.0606 158.792 59.9432 158.371 59.9432 157.864V149.182ZM69.642 160V158.977L73.483 154.773C73.9337 154.28 74.3049 153.852 74.5966 153.489C74.8883 153.121 75.1042 152.777 75.2443 152.455C75.3883 152.129 75.4602 151.788 75.4602 151.432C75.4602 151.023 75.3617 150.669 75.1648 150.369C74.9716 150.07 74.7064 149.839 74.3693 149.676C74.0322 149.513 73.6534 149.432 73.233 149.432C72.786 149.432 72.3958 149.525 72.0625 149.71C71.733 149.892 71.4773 150.148 71.2955 150.477C71.1174 150.807 71.0284 151.193 71.0284 151.636H69.6875C69.6875 150.955 69.8447 150.356 70.1591 149.841C70.4735 149.326 70.9015 148.924 71.4432 148.636C71.9886 148.348 72.6004 148.205 73.2784 148.205C73.9602 148.205 74.5644 148.348 75.0909 148.636C75.6174 148.924 76.0303 149.312 76.3295 149.801C76.6288 150.29 76.7784 150.833 76.7784 151.432C76.7784 151.86 76.7008 152.278 76.5455 152.688C76.3939 153.093 76.1288 153.545 75.75 154.045C75.375 154.542 74.8542 155.148 74.1875 155.864L71.5739 158.659V158.75H76.983V160H69.642ZM78.8068 157.614V156.455L83.9205 148.364H84.7614V150.159H84.1932L80.3295 156.273V156.364H87.2159V157.614H78.8068ZM84.2841 160V157.261V156.722V148.364H85.625V160H84.2841ZM90.821 158.409L90.7301 159.023C90.6657 159.455 90.5672 159.917 90.4347 160.409C90.3059 160.902 90.1714 161.366 90.0312 161.801C89.8911 162.237 89.7756 162.583 89.6847 162.841H88.6619C88.7112 162.598 88.7756 162.278 88.8551 161.881C88.9347 161.483 89.0142 161.038 89.0938 160.545C89.1771 160.057 89.2453 159.557 89.2983 159.045L89.3665 158.409H90.821ZM97.7827 160V158.977L101.624 154.773C102.074 154.28 102.446 153.852 102.737 153.489C103.029 153.121 103.245 152.777 103.385 152.455C103.529 152.129 103.601 151.788 103.601 151.432C103.601 151.023 103.502 150.669 103.305 150.369C103.112 150.07 102.847 149.839 102.51 149.676C102.173 149.513 101.794 149.432 101.374 149.432C100.927 149.432 100.536 149.525 100.203 149.71C99.8736 149.892 99.6179 150.148 99.4361 150.477C99.258 150.807 99.169 151.193 99.169 151.636H97.8281C97.8281 150.955 97.9853 150.356 98.2997 149.841C98.6141 149.326 99.0421 148.924 99.5838 148.636C100.129 148.348 100.741 148.205 101.419 148.205C102.101 148.205 102.705 148.348 103.232 148.636C103.758 148.924 104.171 149.312 104.47 149.801C104.769 150.29 104.919 150.833 104.919 151.432C104.919 151.86 104.841 152.278 104.686 152.688C104.535 153.093 104.269 153.545 103.891 154.045C103.516 154.542 102.995 155.148 102.328 155.864L99.7145 158.659V158.75H105.124V160H97.7827ZM111.266 160.159C110.41 160.159 109.68 159.926 109.078 159.46C108.476 158.991 108.016 158.311 107.697 157.42C107.379 156.527 107.22 155.447 107.22 154.182C107.22 152.924 107.379 151.85 107.697 150.96C108.019 150.066 108.482 149.384 109.084 148.915C109.69 148.441 110.417 148.205 111.266 148.205C112.114 148.205 112.839 148.441 113.442 148.915C114.048 149.384 114.51 150.066 114.828 150.96C115.15 151.85 115.311 152.924 115.311 154.182C115.311 155.447 115.152 156.527 114.834 157.42C114.516 158.311 114.055 158.991 113.453 159.46C112.851 159.926 112.122 160.159 111.266 160.159ZM111.266 158.909C112.114 158.909 112.773 158.5 113.243 157.682C113.713 156.864 113.947 155.697 113.947 154.182C113.947 153.174 113.839 152.316 113.624 151.608C113.411 150.9 113.105 150.36 112.703 149.989C112.305 149.617 111.826 149.432 111.266 149.432C110.425 149.432 109.768 149.847 109.294 150.676C108.821 151.502 108.584 152.67 108.584 154.182C108.584 155.189 108.69 156.045 108.902 156.75C109.114 157.455 109.419 157.991 109.817 158.358C110.218 158.725 110.701 158.909 111.266 158.909ZM117.47 160V158.977L121.311 154.773C121.762 154.28 122.133 153.852 122.425 153.489C122.716 153.121 122.932 152.777 123.072 152.455C123.216 152.129 123.288 151.788 123.288 151.432C123.288 151.023 123.19 150.669 122.993 150.369C122.8 150.07 122.535 149.839 122.197 149.676C121.86 149.513 121.482 149.432 121.061 149.432C120.614 149.432 120.224 149.525 119.891 149.71C119.561 149.892 119.305 150.148 119.124 150.477C118.946 150.807 118.857 151.193 118.857 151.636H117.516C117.516 150.955 117.673 150.356 117.987 149.841C118.302 149.326 118.73 148.924 119.271 148.636C119.817 148.348 120.429 148.205 121.107 148.205C121.788 148.205 122.393 148.348 122.919 148.636C123.446 148.924 123.858 149.312 124.158 149.801C124.457 150.29 124.607 150.833 124.607 151.432C124.607 151.86 124.529 152.278 124.374 152.688C124.222 153.093 123.957 153.545 123.578 154.045C123.203 154.542 122.682 155.148 122.016 155.864L119.402 158.659V158.75H124.811V160H117.47ZM131.089 160.159C130.339 160.159 129.671 160.03 129.084 159.773C128.5 159.515 128.036 159.157 127.692 158.699C127.351 158.237 127.165 157.701 127.135 157.091H128.567C128.597 157.466 128.726 157.79 128.953 158.062C129.18 158.331 129.478 158.54 129.845 158.688C130.213 158.835 130.62 158.909 131.067 158.909C131.567 158.909 132.01 158.822 132.396 158.648C132.783 158.473 133.086 158.231 133.305 157.92C133.525 157.61 133.635 157.25 133.635 156.841C133.635 156.413 133.529 156.036 133.317 155.71C133.105 155.381 132.794 155.123 132.385 154.938C131.976 154.752 131.476 154.659 130.885 154.659H129.953V153.409H130.885C131.347 153.409 131.752 153.326 132.101 153.159C132.453 152.992 132.728 152.758 132.925 152.455C133.125 152.152 133.226 151.795 133.226 151.386C133.226 150.992 133.139 150.65 132.964 150.358C132.79 150.066 132.544 149.839 132.226 149.676C131.911 149.513 131.54 149.432 131.112 149.432C130.711 149.432 130.332 149.506 129.976 149.653C129.624 149.797 129.336 150.008 129.112 150.284C128.889 150.557 128.768 150.886 128.749 151.273H127.385C127.408 150.663 127.591 150.129 127.936 149.67C128.281 149.208 128.732 148.848 129.288 148.591C129.849 148.333 130.464 148.205 131.135 148.205C131.855 148.205 132.472 148.35 132.987 148.642C133.502 148.93 133.898 149.311 134.175 149.784C134.451 150.258 134.589 150.769 134.589 151.318C134.589 151.973 134.417 152.532 134.072 152.994C133.732 153.456 133.268 153.777 132.68 153.955V154.045C133.415 154.167 133.989 154.479 134.402 154.983C134.815 155.483 135.021 156.102 135.021 156.841C135.021 157.473 134.849 158.042 134.504 158.545C134.163 159.045 133.697 159.439 133.107 159.727C132.516 160.015 131.843 160.159 131.089 160.159Z" fill="#191C1D"/>
<path d="M209.758 132.742L210.575 131.925L208.417 129.767V127.083H207.25V130.233L209.758 132.742ZM207.833 135.833C207.026 135.833 206.268 135.68 205.558 135.374C204.849 135.068 204.231 134.652 203.706 134.127C203.181 133.602 202.766 132.985 202.459 132.275C202.153 131.565 202 130.807 202 130C202 129.193 202.153 128.435 202.459 127.725C202.766 127.015 203.181 126.398 203.706 125.873C204.231 125.348 204.849 124.932 205.558 124.626C206.268 124.32 207.026 124.167 207.833 124.167C208.64 124.167 209.399 124.32 210.108 124.626C210.818 124.932 211.435 125.348 211.96 125.873C212.485 126.398 212.901 127.015 213.207 127.725C213.514 128.435 213.667 129.193 213.667 130C213.667 130.807 213.514 131.565 213.207 132.275C212.901 132.985 212.485 133.602 211.96 134.127C211.435 134.652 210.818 135.068 210.108 135.374C209.399 135.68 208.64 135.833 207.833 135.833ZM207.833 134.667C209.126 134.667 210.227 134.212 211.136 133.303C212.045 132.394 212.5 131.293 212.5 130C212.5 128.707 212.045 127.606 211.136 126.697C210.227 125.788 209.126 125.333 207.833 125.333C206.54 125.333 205.439 125.788 204.53 126.697C203.621 127.606 203.167 128.707 203.167 130C203.167 131.293 203.621 132.394 204.53 133.303C205.439 134.212 206.54 134.667 207.833 134.667Z" fill="#404943"/>
<path d="M218.152 126.587V125.27H225.104V126.587H222.414V134H220.85V126.587H218.152ZM228.631 125.27V134H227.066V125.27H228.631ZM230.988 134V125.27H233.347L235.006 129.778C235.062 129.944 235.126 130.159 235.198 130.422C235.271 130.685 235.345 130.969 235.421 131.274C235.498 131.578 235.57 131.876 235.638 132.167C235.706 132.457 235.763 132.715 235.809 132.938H235.494C235.543 132.722 235.601 132.47 235.668 132.182C235.735 131.893 235.807 131.596 235.883 131.291C235.96 130.985 236.034 130.698 236.107 130.432C236.18 130.165 236.244 129.947 236.301 129.778L237.937 125.27H240.301V134H238.739V129.594C238.739 129.407 238.741 129.18 238.746 128.914C238.751 128.648 238.757 128.362 238.765 128.058C238.773 127.753 238.781 127.446 238.788 127.135C238.795 126.824 238.8 126.529 238.803 126.251H238.911C238.834 126.557 238.749 126.871 238.658 127.194C238.567 127.517 238.476 127.83 238.386 128.133C238.296 128.437 238.211 128.715 238.13 128.967C238.049 129.219 237.98 129.428 237.922 129.594L236.309 134H234.981L233.342 129.594C233.285 129.43 233.217 129.224 233.137 128.976C233.058 128.728 232.973 128.453 232.882 128.152C232.79 127.851 232.698 127.538 232.605 127.213C232.512 126.887 232.421 126.567 232.332 126.251H232.46C232.465 126.512 232.471 126.795 232.479 127.101C232.486 127.407 232.493 127.714 232.5 128.022C232.506 128.331 232.513 128.621 232.519 128.894C232.525 129.166 232.528 129.4 232.528 129.594V134H230.988ZM242.657 134V125.27H248.327V126.587H244.221V128.941H248.025V130.242H244.221V132.682H248.352V134H242.657Z" fill="#404943"/>
<path d="M207 160.159C206.144 160.159 205.415 159.926 204.812 159.46C204.21 158.991 203.75 158.311 203.432 157.42C203.114 156.527 202.955 155.447 202.955 154.182C202.955 152.924 203.114 151.85 203.432 150.96C203.754 150.066 204.216 149.384 204.818 148.915C205.424 148.441 206.152 148.205 207 148.205C207.848 148.205 208.574 148.441 209.176 148.915C209.782 149.384 210.244 150.066 210.562 150.96C210.884 151.85 211.045 152.924 211.045 154.182C211.045 155.447 210.886 156.527 210.568 157.42C210.25 158.311 209.79 158.991 209.188 159.46C208.585 159.926 207.856 160.159 207 160.159ZM207 158.909C207.848 158.909 208.508 158.5 208.977 157.682C209.447 156.864 209.682 155.697 209.682 154.182C209.682 153.174 209.574 152.316 209.358 151.608C209.146 150.9 208.839 150.36 208.438 149.989C208.04 149.617 207.561 149.432 207 149.432C206.159 149.432 205.502 149.847 205.028 150.676C204.555 151.502 204.318 152.67 204.318 154.182C204.318 155.189 204.424 156.045 204.636 156.75C204.848 157.455 205.153 157.991 205.551 158.358C205.953 158.725 206.436 158.909 207 158.909ZM216.909 148.205C217.386 148.208 217.864 148.299 218.341 148.477C218.818 148.655 219.254 148.951 219.648 149.364C220.042 149.773 220.358 150.331 220.597 151.04C220.835 151.748 220.955 152.636 220.955 153.705C220.955 154.739 220.856 155.657 220.659 156.46C220.466 157.259 220.186 157.934 219.818 158.483C219.455 159.032 219.011 159.449 218.489 159.733C217.97 160.017 217.383 160.159 216.727 160.159C216.076 160.159 215.494 160.03 214.983 159.773C214.475 159.511 214.059 159.15 213.733 158.688C213.411 158.222 213.205 157.682 213.114 157.068H214.5C214.625 157.602 214.873 158.044 215.244 158.392C215.619 158.737 216.114 158.909 216.727 158.909C217.625 158.909 218.333 158.517 218.852 157.733C219.375 156.949 219.636 155.841 219.636 154.409H219.545C219.333 154.727 219.081 155.002 218.79 155.233C218.498 155.464 218.174 155.642 217.818 155.767C217.462 155.892 217.083 155.955 216.682 155.955C216.015 155.955 215.403 155.79 214.847 155.46C214.294 155.127 213.85 154.67 213.517 154.091C213.188 153.508 213.023 152.841 213.023 152.091C213.023 151.379 213.182 150.727 213.5 150.136C213.822 149.542 214.273 149.068 214.852 148.716C215.436 148.364 216.121 148.193 216.909 148.205ZM216.909 149.455C216.432 149.455 216.002 149.574 215.619 149.812C215.241 150.047 214.939 150.366 214.716 150.767C214.496 151.165 214.386 151.606 214.386 152.091C214.386 152.576 214.492 153.017 214.705 153.415C214.92 153.809 215.214 154.123 215.585 154.358C215.96 154.589 216.386 154.705 216.864 154.705C217.223 154.705 217.559 154.634 217.869 154.494C218.18 154.35 218.451 154.155 218.682 153.909C218.917 153.659 219.1 153.377 219.233 153.062C219.366 152.744 219.432 152.413 219.432 152.068C219.432 151.614 219.322 151.187 219.102 150.79C218.886 150.392 218.587 150.07 218.205 149.824C217.826 149.578 217.394 149.455 216.909 149.455ZM224.189 158.511C223.909 158.511 223.668 158.411 223.467 158.21C223.267 158.009 223.166 157.769 223.166 157.489C223.166 157.208 223.267 156.968 223.467 156.767C223.668 156.566 223.909 156.466 224.189 156.466C224.469 156.466 224.71 156.566 224.911 156.767C225.111 156.968 225.212 157.208 225.212 157.489C225.212 157.674 225.164 157.845 225.07 158C224.979 158.155 224.856 158.28 224.7 158.375C224.549 158.466 224.378 158.511 224.189 158.511ZM224.189 152.625C223.909 152.625 223.668 152.525 223.467 152.324C223.267 152.123 223.166 151.883 223.166 151.602C223.166 151.322 223.267 151.081 223.467 150.881C223.668 150.68 223.909 150.58 224.189 150.58C224.469 150.58 224.71 150.68 224.911 150.881C225.111 151.081 225.212 151.322 225.212 151.602C225.212 151.788 225.164 151.958 225.07 152.114C224.979 152.269 224.856 152.394 224.7 152.489C224.549 152.58 224.378 152.625 224.189 152.625ZM227.322 157.614V156.455L232.436 148.364H233.277V150.159H232.709L228.845 156.273V156.364H235.732V157.614H227.322ZM232.8 160V157.261V156.722V148.364H234.141V160H232.8ZM241.497 160.159C240.83 160.159 240.23 160.027 239.696 159.761C239.162 159.496 238.734 159.133 238.412 158.67C238.09 158.208 237.914 157.682 237.884 157.091H239.247C239.3 157.617 239.539 158.053 239.963 158.398C240.391 158.739 240.902 158.909 241.497 158.909C241.974 158.909 242.399 158.797 242.77 158.574C243.145 158.35 243.438 158.044 243.651 157.653C243.866 157.259 243.974 156.814 243.974 156.318C243.974 155.811 243.863 155.358 243.639 154.96C243.42 154.559 243.116 154.242 242.73 154.011C242.344 153.78 241.902 153.663 241.406 153.659C241.05 153.655 240.685 153.71 240.31 153.824C239.935 153.934 239.626 154.076 239.384 154.25L238.065 154.091L238.77 148.364H244.815V149.614H239.952L239.543 153.045H239.611C239.849 152.856 240.149 152.699 240.509 152.574C240.868 152.449 241.243 152.386 241.634 152.386C242.346 152.386 242.98 152.557 243.537 152.898C244.098 153.235 244.537 153.697 244.855 154.284C245.177 154.871 245.338 155.542 245.338 156.295C245.338 157.038 245.171 157.701 244.838 158.284C244.509 158.864 244.054 159.322 243.474 159.659C242.895 159.992 242.236 160.159 241.497 160.159ZM252.777 160H251.3L255.572 148.364H257.027L261.3 160H259.822L256.345 150.205H256.254L252.777 160ZM253.322 155.455H259.277V156.705H253.322V155.455ZM263.112 148.364H264.794L268.749 158.023H268.885L272.839 148.364H274.521V160H273.203V151.159H273.089L269.453 160H268.18L264.544 151.159H264.43V160H263.112V148.364Z" fill="#191C1D"/>
</g>
<defs>
<filter id="filter0_d_3_557" x="0" y="0" width="380" height="207" filterUnits="userSpaceOnUse" color-interpolation-filters="sRGB">
<feFlood flood-opacity="0" result="BackgroundImageFix"/>
<feColorMatrix in="SourceAlpha" type="matrix" values="0 0 0 0 0 0 0 0 0 0 0 0 0 0 0 0 0 0 127 0" result="hardAlpha"/>
<feOffset dy="4"/>
<feGaussianBlur stdDeviation="6"/>
<feComposite in2="hardAlpha" operator="out"/>
<feColorMatrix type="matrix" values="0 0 0 0 0.0588235 0 0 0 0 0.321569 0 0 0 0 0.219608 0 0 0 0.04 0"/>
<feBlend mode="normal" in2="BackgroundImageFix" result="effect1_dropShadow_3_557"/>
<feBlend mode="normal" in="SourceGraphic" in2="effect1_dropShadow_3_557" result="shape"/>
</filter>
</defs>
</svg>
