<svg width="40" height="40" viewBox="0 0 40 40" fill="none" xmlns="http://www.w3.org/2000/svg">
<rect width="40" height="40" rx="20" fill="#8D4D4E"/>
<path d="M20 30.75C18.6833 30.75 17.45 30.5 16.3 30C15.15 29.5 14.1458 28.8208 13.2875 27.9625C12.4292 27.1042 11.75 26.1 11.25 24.95C10.75 23.8 10.5 22.5667 10.5 21.25C10.5 19.9333 10.75 18.7 11.25 17.55C11.75 16.4 12.4292 15.3958 13.2875 14.5375C14.1458 13.6792 15.15 13 16.3 12.5C17.45 12 18.6833 11.75 20 11.75V9.25L24 13.25L20 17.25V14.75C18.2 14.75 16.6667 15.3833 15.4 16.65C14.1333 17.9167 13.5 19.45 13.5 21.25C13.5 22.35 13.7542 23.3708 14.2625 24.3125C14.7708 25.2542 15.45 26.0167 16.3 26.6C16.5667 26.1333 16.9625 25.7375 17.4875 25.4125C18.0125 25.0875 18.6167 24.8833 19.3 24.8C19.25 24.45 19.1833 24.1 19.1 23.75C19.0167 23.4 18.9167 23.075 18.8 22.775C18.6167 22.925 18.4167 23.0417 18.2 23.125C17.9833 23.2083 17.75 23.25 17.5 23.25C16.95 23.25 16.4792 23.0542 16.0875 22.6625C15.6958 22.2708 15.5 21.8 15.5 21.25V20.25C15.5 19.9667 15.4542 19.7 15.3625 19.45C15.2708 19.2 15.15 18.9667 15 18.75C15.8333 18.7333 16.575 18.8083 17.225 18.975C17.7917 19.125 18.3083 19.3708 18.775 19.7125C19.2417 20.0542 19.4833 20.5667 19.5 21.25C19.5 21.4 19.4875 21.5375 19.4625 21.6625C19.4375 21.7875 19.3917 21.9167 19.325 22.05C19.1083 21.8833 18.8917 21.7333 18.675 21.6C18.4583 21.4667 18.2333 21.35 18 21.25C18.2833 21.4667 18.6083 21.8 18.975 22.25C19.3417 22.7 19.6833 23.2333 20 23.85C20.3333 23.0333 20.75 22.2292 21.25 21.4375C21.75 20.6458 22.3333 19.9167 23 19.25C22.6167 19.5167 22.25 19.8 21.9 20.1C21.55 20.4 21.2083 20.7167 20.875 21.05C20.7583 20.8667 20.6667 20.6625 20.6 20.4375C20.5333 20.2125 20.5 19.9833 20.5 19.75C20.5 19.05 20.7417 18.4583 21.225 17.975C21.7083 17.4917 22.3 17.25 23 17.25H24C24.3833 17.25 24.7 17.2 24.95 17.1C25.2 17 25.4083 16.8833 25.575 16.75C25.7583 16.6 25.9 16.4333 26 16.25C26.0667 17.3667 26.0083 18.3667 25.825 19.25C25.675 20 25.3917 20.6875 24.975 21.3125C24.5583 21.9375 23.9 22.25 23 22.25C22.75 22.25 22.5125 22.2167 22.2875 22.15C22.0625 22.0833 21.8583 21.9917 21.675 21.875C21.5583 22.1917 21.425 22.6125 21.275 23.1375C21.125 23.6625 21.0083 24.225 20.925 24.825C21.5583 24.9417 22.1167 25.1583 22.6 25.475C23.0833 25.7917 23.45 26.1667 23.7 26.6C24.55 26.0167 25.2292 25.2583 25.7375 24.325C26.2458 23.3917 26.5 22.3667 26.5 21.25H29.5C29.5 22.5667 29.25 23.8 28.75 24.95C28.25 26.1 27.5708 27.1042 26.7125 27.9625C25.8542 28.8208 24.85 29.5 23.7 30C22.55 30.5 21.3167 30.75 20 30.75Z" fill="white"/>
</svg>
