<svg width="17" height="17" viewBox="0 0 17 17" fill="none" xmlns="http://www.w3.org/2000/svg">
<path d="M2.40064 14.5962C1.65044 13.846 1.06278 12.9791 0.637669 11.9955C0.212556 11.0119 0 9.99496 0 8.94468C0 7.8944 0.200053 6.85663 0.600159 5.83136C1.00027 4.80608 1.65044 3.84333 2.55068 2.94309C3.13417 2.3596 3.85519 1.85947 4.71375 1.44269C5.57231 1.02591 6.58925 0.696659 7.76456 0.454929C8.93988 0.213198 10.2819 0.0673256 11.7906 0.0173123C13.2994 -0.032701 14.9873 0.0256478 16.8545 0.192359C16.9878 1.95949 17.0295 3.58493 16.9795 5.06865C16.9295 6.55238 16.792 7.89024 16.5669 9.08222C16.3418 10.2742 16.0251 11.3161 15.6166 12.2081C15.2082 13.1 14.7039 13.846 14.1037 14.4461C13.2202 15.3297 12.2824 15.9757 11.2905 16.3842C10.2986 16.7926 9.2858 16.9968 8.25219 16.9968C7.16857 16.9968 6.10996 16.7843 5.07635 16.3592C4.04274 15.934 3.15084 15.3464 2.40064 14.5962ZM5.20138 14.1961C5.68484 14.4795 6.18081 14.6837 6.68928 14.8087C7.19775 14.9338 7.71872 14.9963 8.25219 14.9963C9.01906 14.9963 9.7776 14.8421 10.5278 14.5337C11.278 14.2253 11.9949 13.7293 12.6784 13.0458C12.9784 12.7457 13.2827 12.3247 13.5911 11.7829C13.8995 11.2411 14.1663 10.5326 14.3913 9.65737C14.6164 8.78214 14.7873 7.72353 14.904 6.48153C15.0207 5.23953 15.0373 3.75997 14.954 2.04285C14.1371 2.00951 13.216 1.997 12.1907 2.00534C11.1655 2.01368 10.1444 2.09286 9.12742 2.2429C8.11049 2.39294 7.14356 2.63467 6.22665 2.9681C5.30974 3.30152 4.55954 3.75997 3.97606 4.34346C3.22586 5.09366 2.70905 5.83552 2.42564 6.56905C2.14224 7.30258 2.00053 8.0111 2.00053 8.69462C2.00053 9.67821 2.18808 10.5409 2.56318 11.2828C2.93828 12.0247 3.26753 12.5456 3.55094 12.8457C4.25113 11.512 5.17637 10.2325 6.32668 9.0072C7.47699 7.78188 8.81901 6.77744 10.3528 5.9939C9.15243 7.04418 8.10632 8.23199 7.21442 9.55735C6.32251 10.8827 5.6515 12.4289 5.20138 14.1961Z" fill="#0F5238"/>
</svg>
