<svg width="12" height="12" viewBox="0 0 12 12" fill="none" xmlns="http://www.w3.org/2000/svg">
<path d="M7.97994 8.81994L8.81994 7.97994L6.59995 5.75996V2.99998H5.39996V6.23996L7.97994 8.81994ZM5.99996 11.9999C5.16996 11.9999 4.38997 11.8424 3.65997 11.5274C2.92998 11.2124 2.29498 10.7849 1.75499 10.2449C1.21499 9.70493 0.787495 9.06994 0.472497 8.33994C0.157499 7.60995 0 6.82995 0 5.99996C0 5.16996 0.157499 4.38997 0.472497 3.65997C0.787495 2.92998 1.21499 2.29498 1.75499 1.75499C2.29498 1.21499 2.92998 0.787495 3.65997 0.472497C4.38997 0.157499 5.16996 0 5.99996 0C6.82995 0 7.60995 0.157499 8.33994 0.472497C9.06994 0.787495 9.70493 1.21499 10.2449 1.75499C10.7849 2.29498 11.2124 2.92998 11.5274 3.65997C11.8424 4.38997 11.9999 5.16996 11.9999 5.99996C11.9999 6.82995 11.8424 7.60995 11.5274 8.33994C11.2124 9.06994 10.7849 9.70493 10.2449 10.2449C9.70493 10.7849 9.06994 11.2124 8.33994 11.5274C7.60995 11.8424 6.82995 11.9999 5.99996 11.9999ZM5.99996 10.7999C7.32995 10.7999 8.46244 10.3324 9.39743 9.39743C10.3324 8.46244 10.7999 7.32995 10.7999 5.99996C10.7999 4.66997 10.3324 3.53748 9.39743 2.60248C8.46244 1.66749 7.32995 1.19999 5.99996 1.19999C4.66997 1.19999 3.53748 1.66749 2.60248 2.60248C1.66749 3.53748 1.19999 4.66997 1.19999 5.99996C1.19999 7.32995 1.66749 8.46244 2.60248 9.39743C3.53748 10.3324 4.66997 10.7999 5.99996 10.7999Z" fill="#404943"/>
</svg>
