<svg width="113" height="125" viewBox="0 0 113 125" fill="none" xmlns="http://www.w3.org/2000/svg">
<g opacity="0.1">
<path d="M18.75 125C13.5417 125 9.11458 123.177 5.46875 119.531C1.82292 115.885 0 111.458 0 106.25V87.5H18.75V0L28.125 9.375L37.5 0L46.875 9.375L56.25 0L65.625 9.375L75 0L84.375 9.375L93.75 0L103.125 9.375L112.5 0V106.25C112.5 111.458 110.677 115.885 107.031 119.531C103.385 123.177 98.9583 125 93.75 125H18.75ZM93.75 112.5C95.5208 112.5 97.0052 111.901 98.2031 110.703C99.401 109.505 100 108.021 100 106.25V18.75H31.25V87.5H87.5V106.25C87.5 108.021 88.099 109.505 89.2969 110.703C90.4948 111.901 91.9792 112.5 93.75 112.5ZM37.5 43.75V31.25H75V43.75H37.5ZM37.5 62.5V50H75V62.5H37.5ZM87.5 43.75C85.7292 43.75 84.2448 43.151 83.0469 41.9531C81.849 40.7552 81.25 39.2708 81.25 37.5C81.25 35.7292 81.849 34.2448 83.0469 33.0469C84.2448 31.849 85.7292 31.25 87.5 31.25C89.2708 31.25 90.7552 31.849 91.9531 33.0469C93.151 34.2448 93.75 35.7292 93.75 37.5C93.75 39.2708 93.151 40.7552 91.9531 41.9531C90.7552 43.151 89.2708 43.75 87.5 43.75ZM87.5 62.5C85.7292 62.5 84.2448 61.901 83.0469 60.7031C81.849 59.5052 81.25 58.0208 81.25 56.25C81.25 54.4792 81.849 52.9948 83.0469 51.7969C84.2448 50.599 85.7292 50 87.5 50C89.2708 50 90.7552 50.599 91.9531 51.7969C93.151 52.9948 93.75 54.4792 93.75 56.25C93.75 58.0208 93.151 59.5052 91.9531 60.7031C90.7552 61.901 89.2708 62.5 87.5 62.5Z" fill="white"/>
</g>
</svg>
