<svg width="12" height="12" viewBox="0 0 12 12" fill="none" xmlns="http://www.w3.org/2000/svg">
<path d="M1.69457 10.3032C1.16502 9.77364 0.750199 9.16171 0.45012 8.46741C0.15004 7.77311 0 7.05527 0 6.31389C0 5.57252 0.141214 4.83997 0.423642 4.11625C0.70607 3.39253 1.16502 2.71294 1.80048 2.07747C2.21235 1.6656 2.72131 1.31257 3.32735 1.01837C3.9334 0.724174 4.65124 0.49176 5.48087 0.321126C6.3105 0.150492 7.25781 0.0475239 8.3228 0.0122204C9.38779 -0.0230831 10.5793 0.0181044 11.8973 0.135783C11.9914 1.38317 12.0208 2.53054 11.9855 3.57787C11.9502 4.62521 11.8531 5.56958 11.6943 6.41098C11.5354 7.25238 11.3118 7.98787 11.0235 8.61745C10.7352 9.24703 10.3792 9.77364 9.95559 10.1973C9.33189 10.821 8.66995 11.277 7.96976 11.5653C7.26958 11.8536 6.55468 11.9978 5.82508 11.9978C5.06017 11.9978 4.31291 11.8477 3.58331 11.5476C2.8537 11.2476 2.22412 10.8327 1.69457 10.3032ZM3.67156 10.0208C4.01283 10.2208 4.36292 10.365 4.72184 10.4532C5.08076 10.5415 5.44851 10.5856 5.82508 10.5856C6.3664 10.5856 6.90183 10.4768 7.43139 10.2591C7.96094 10.0414 8.46696 9.69126 8.94944 9.20878C9.16126 8.99696 9.37602 8.69982 9.59373 8.31737C9.81143 7.93491 9.99972 7.43478 10.1586 6.81697C10.3174 6.19916 10.4381 5.4519 10.5204 4.5752C10.6028 3.69849 10.6146 2.6541 10.5557 1.44201C9.97912 1.41848 9.32895 1.40965 8.60523 1.41553C7.88151 1.42142 7.16073 1.47732 6.44289 1.58323C5.72505 1.68914 5.04252 1.85977 4.39529 2.09513C3.74805 2.33048 3.2185 2.6541 2.80663 3.06597C2.27708 3.59553 1.91227 4.11919 1.71222 4.63698C1.51217 5.15476 1.41214 5.6549 1.41214 6.13738C1.41214 6.83168 1.54453 7.44066 1.8093 7.96433C2.07408 8.488 2.3065 8.85575 2.50655 9.06757C3.0008 8.12614 3.65391 7.22296 4.46589 6.35802C5.27787 5.49309 6.22518 4.78408 7.30782 4.23099C6.46054 4.97236 5.72211 5.81082 5.09253 6.74636C4.46295 7.6819 3.9893 8.77337 3.67156 10.0208Z" fill="#4C6452"/>
</svg>
