<svg width="124" height="14" viewBox="0 0 124 14" fill="none" xmlns="http://www.w3.org/2000/svg">
<path d="M1.35959 13.1163C1.15965 13.1163 0.981367 13.0996 0.824745 13.0663C0.668122 13.0363 0.55982 13.0063 0.499837 12.9763L0.799752 11.9366C1.08634 12.0099 1.3396 12.0366 1.55954 12.0166C1.77948 11.9966 1.97442 11.8983 2.14437 11.7217C2.31766 11.5484 2.47595 11.2668 2.61924 10.8769L2.83918 10.2771L-2.23008e-05 2.55928H1.27962L3.39902 8.67756H3.479L5.5984 2.55928H6.87804L3.61896 11.3568C3.47233 11.7534 3.29072 12.0816 3.07411 12.3415C2.8575 12.6048 2.60591 12.7997 2.31932 12.9264C2.03607 13.053 1.71616 13.1163 1.35959 13.1163ZM11.2793 10.3971C10.5862 10.3971 9.97799 10.2321 9.45481 9.90221C8.93496 9.5723 8.5284 9.11077 8.23515 8.5176C7.94523 7.92444 7.80028 7.2313 7.80028 6.43819C7.80028 5.63841 7.94523 4.94028 8.23515 4.34378C8.5284 3.74728 8.93496 3.28408 9.45481 2.95417C9.97799 2.62426 10.5862 2.45931 11.2793 2.45931C11.9724 2.45931 12.5789 2.62426 13.0988 2.95417C13.622 3.28408 14.0285 3.74728 14.3184 4.34378C14.6117 4.94028 14.7583 5.63841 14.7583 6.43819C14.7583 7.2313 14.6117 7.92444 14.3184 8.5176C14.0285 9.11077 13.622 9.5723 13.0988 9.90221C12.5789 10.2321 11.9724 10.3971 11.2793 10.3971ZM11.2793 9.33737C11.8058 9.33737 12.239 9.20241 12.5789 8.93248C12.9188 8.66256 13.1704 8.30766 13.3337 7.86778C13.497 7.42791 13.5786 6.95138 13.5786 6.43819C13.5786 5.925 13.497 5.4468 13.3337 5.00359C13.1704 4.56038 12.9188 4.20215 12.5789 3.9289C12.239 3.65564 11.8058 3.51901 11.2793 3.51901C10.7528 3.51901 10.3196 3.65564 9.97966 3.9289C9.63976 4.20215 9.38816 4.56038 9.22487 5.00359C9.06159 5.4468 8.97994 5.925 8.97994 6.43819C8.97994 6.95138 9.06159 7.42791 9.22487 7.86778C9.38816 8.30766 9.63976 8.66256 9.97966 8.93248C10.3196 9.20241 10.7528 9.33737 11.2793 9.33737ZM21.3977 7.098V2.55928H22.5774V10.2371H21.3977V8.93748H21.3177C21.1378 9.32737 20.8578 9.65895 20.4779 9.9322C20.0981 10.2021 19.6182 10.3371 19.0384 10.3371C18.5585 10.3371 18.1319 10.2321 17.7587 10.0222C17.3855 9.8089 17.0922 9.48899 16.879 9.06245C16.6657 8.63257 16.5591 8.09105 16.5591 7.43791V2.55928H17.7387V7.35793C17.7387 7.91777 17.8953 8.36431 18.2086 8.69755C18.5252 9.03079 18.9284 9.19741 19.4182 9.19741C19.7115 9.19741 20.0097 9.12243 20.313 8.97247C20.6196 8.82251 20.8762 8.59258 21.0828 8.28267C21.2927 7.97275 21.3977 7.57787 21.3977 7.098ZM30.6363 12.9364C29.6166 12.9364 28.7152 12.7964 27.9321 12.5165C27.149 12.2399 26.4908 11.8317 25.9576 11.2918C25.4245 10.752 25.0212 10.0905 24.748 9.30738C24.4747 8.52427 24.3381 7.62785 24.3381 6.61814C24.3381 5.64175 24.4764 4.76866 24.753 3.99888C25.0329 3.22909 25.4378 2.57595 25.9676 2.03943C26.5008 1.49958 27.1473 1.08803 27.9071 0.804778C28.6702 0.521525 29.5333 0.379898 30.4964 0.379898C31.4328 0.379898 32.2525 0.533188 32.9557 0.839768C33.6621 1.14302 34.252 1.55457 34.7252 2.07442C35.2017 2.59094 35.5583 3.17244 35.7949 3.81893C36.0348 4.46541 36.1548 5.13189 36.1548 5.81836C36.1548 6.30156 36.1314 6.79142 36.0848 7.28795C36.0381 7.78447 35.9398 8.24101 35.7899 8.65756C35.6399 9.07078 35.4083 9.40402 35.0951 9.65728C34.7852 9.91054 34.3653 10.0372 33.8354 10.0372C33.6022 10.0372 33.3456 10.0005 33.0656 9.9272C32.7857 9.85389 32.5375 9.73226 32.3209 9.56231C32.1042 9.39235 31.976 9.16409 31.936 8.8775H31.876C31.796 9.07078 31.6727 9.25406 31.5061 9.42734C31.3428 9.60063 31.1279 9.73892 30.8613 9.84223C30.598 9.94553 30.2764 9.99052 29.8965 9.97719C29.4633 9.96053 29.0818 9.86389 28.7519 9.68727C28.422 9.50732 28.1454 9.26406 27.9221 8.95748C27.7022 8.64756 27.5355 8.28933 27.4222 7.88278C27.3123 7.4729 27.2573 7.03135 27.2573 6.55815C27.2573 6.10828 27.3239 5.69673 27.4572 5.3235C27.5905 4.95027 27.7755 4.6237 28.0121 4.34378C28.252 4.06386 28.5319 3.84059 28.8518 3.67397C29.1751 3.50402 29.5233 3.39905 29.8965 3.35906C30.2298 3.32573 30.533 3.34073 30.8063 3.40404C31.0795 3.46403 31.3045 3.55567 31.4811 3.67897C31.6577 3.79893 31.7693 3.93223 31.816 4.07885H31.876V3.51901H32.9357V8.03774C32.9357 8.31766 33.014 8.56425 33.1706 8.77753C33.3272 8.9908 33.5555 9.09744 33.8554 9.09744C34.1953 9.09744 34.4553 8.9808 34.6352 8.74754C34.8185 8.51427 34.9434 8.15437 35.0101 7.66784C35.0801 7.18131 35.1151 6.55815 35.1151 5.79837C35.1151 5.35183 35.0534 4.91195 34.9301 4.47874C34.8102 4.0422 34.6269 3.63398 34.3803 3.25409C34.137 2.87419 33.8288 2.53929 33.4555 2.24937C33.0823 1.95945 32.6441 1.73285 32.1409 1.56956C31.641 1.40294 31.0729 1.31963 30.4364 1.31963C29.6533 1.31963 28.9518 1.44127 28.332 1.68453C27.7155 1.92446 27.1906 2.27603 26.7574 2.73923C26.3275 3.1991 25.9993 3.75894 25.7727 4.41876C25.5494 5.07524 25.4378 5.8217 25.4378 6.65813C25.4378 7.50789 25.5494 8.26267 25.7727 8.92249C25.9993 9.5823 26.3325 10.1388 26.7724 10.592C27.2156 11.0452 27.7638 11.3885 28.417 11.6217C29.0701 11.8583 29.8232 11.9766 30.6763 11.9766C31.0429 11.9766 31.4044 11.9416 31.761 11.8717C32.1176 11.8017 32.4325 11.725 32.7057 11.6417C32.979 11.5584 33.1756 11.4968 33.2956 11.4568L33.5755 12.3765C33.3689 12.4632 33.099 12.5498 32.7657 12.6364C32.4358 12.7231 32.0826 12.7947 31.706 12.8514C31.3328 12.908 30.9762 12.9364 30.6363 12.9364ZM30.0565 8.95748C30.503 8.95748 30.8646 8.8675 31.1412 8.68755C31.4178 8.5076 31.6194 8.23601 31.746 7.87278C31.8726 7.50955 31.936 7.05135 31.936 6.49817C31.936 5.93833 31.866 5.50179 31.726 5.18854C31.5861 4.8753 31.3795 4.65536 31.1062 4.52873C30.8329 4.4021 30.4964 4.33878 30.0965 4.33878C29.7166 4.33878 29.3917 4.43875 29.1218 4.6387C28.8552 4.83531 28.6502 5.09857 28.5069 5.42847C28.367 5.75505 28.297 6.11161 28.297 6.49817C28.297 6.92472 28.3536 7.32627 28.4669 7.70283C28.5802 8.07606 28.7652 8.37931 29.0218 8.61257C29.2784 8.84251 29.6233 8.95748 30.0565 8.95748ZM41.1396 10.3971C40.3998 10.3971 39.7617 10.2338 39.2252 9.90721C38.692 9.5773 38.2804 9.11743 37.9905 8.5276C37.7039 7.93443 37.5606 7.24463 37.5606 6.45818C37.5606 5.67174 37.7039 4.9786 37.9905 4.37877C38.2804 3.77561 38.6836 3.30574 39.2002 2.96917C39.72 2.62926 40.3265 2.45931 41.0196 2.45931C41.4195 2.45931 41.8144 2.52596 42.2043 2.65925C42.5942 2.79255 42.9491 3.00916 43.269 3.30907C43.5889 3.60565 43.8439 3.99888 44.0338 4.48874C44.2237 4.9786 44.3187 5.58176 44.3187 6.29823V6.79809H38.4004V5.77837H43.1191C43.1191 5.34516 43.0324 4.95861 42.8591 4.6187C42.6892 4.2788 42.4459 4.01054 42.1293 3.81393C41.8161 3.61732 41.4462 3.51901 41.0196 3.51901C40.5498 3.51901 40.1432 3.63565 39.8 3.86891C39.4601 4.09885 39.1985 4.39876 39.0152 4.76866C38.8319 5.13855 38.7403 5.53511 38.7403 5.95832V6.63813C38.7403 7.21797 38.8403 7.7095 39.0402 8.11272C39.2435 8.5126 39.5251 8.81752 39.885 9.02746C40.2449 9.23407 40.6631 9.33737 41.1396 9.33737C41.4495 9.33737 41.7294 9.29405 41.9794 9.20741C42.2326 9.11743 42.4509 8.98414 42.6342 8.80752C42.8175 8.62757 42.9591 8.4043 43.0591 8.13771L44.1988 8.45762C44.0788 8.84418 43.8772 9.18408 43.5939 9.47733C43.3107 9.76725 42.9608 9.99385 42.5442 10.1571C42.1277 10.3171 41.6595 10.3971 41.1396 10.3971ZM46.7868 2.55928L48.6263 5.6984L50.4657 2.55928H51.8253L49.346 6.3982L51.8253 10.2371H50.4657L48.6263 7.25796L46.7868 10.2371H45.4272L47.8665 6.3982L45.4272 2.55928H46.7868ZM55.768 10.4171C55.2815 10.4171 54.8399 10.3254 54.4434 10.1421C54.0468 9.95553 53.7319 9.68727 53.4986 9.33737C53.2654 8.98414 53.1487 8.55759 53.1487 8.05773C53.1487 7.61786 53.2354 7.26129 53.4087 6.98803C53.5819 6.71144 53.8135 6.49484 54.1035 6.33822C54.3934 6.18159 54.7133 6.06496 55.0632 5.98832C55.4164 5.90834 55.7713 5.84502 56.1279 5.79837C56.5944 5.73839 56.9726 5.6934 57.2626 5.66341C57.5558 5.63008 57.7691 5.5751 57.9024 5.49845C58.039 5.42181 58.1073 5.28851 58.1073 5.09857V5.05858C58.1073 4.56538 57.9724 4.18216 57.7024 3.9089C57.4358 3.63565 57.031 3.49902 56.4878 3.49902C55.9246 3.49902 55.4831 3.62232 55.1632 3.86891C54.8432 4.11551 54.6183 4.37877 54.4883 4.65869L53.3687 4.2588C53.5686 3.79227 53.8352 3.42904 54.1684 3.16911C54.505 2.90585 54.8716 2.72257 55.2681 2.61927C55.668 2.51263 56.0612 2.45931 56.4478 2.45931C56.6944 2.45931 56.9776 2.4893 57.2976 2.54929C57.6208 2.60594 57.9324 2.72424 58.2323 2.90419C58.5355 3.08413 58.7871 3.35572 58.9871 3.71896C59.187 4.08219 59.287 4.56872 59.287 5.17854V10.2371H58.1073V9.19741H58.0473C57.9674 9.36403 57.8341 9.54231 57.6475 9.73226C57.4608 9.9222 57.2126 10.0838 56.9027 10.2171C56.5928 10.3504 56.2145 10.4171 55.768 10.4171ZM55.9479 9.35736C56.4145 9.35736 56.8077 9.26572 57.1276 9.08244C57.4508 8.89916 57.6941 8.66256 57.8574 8.37264C58.024 8.08272 58.1073 7.77781 58.1073 7.4579V6.3782C58.0573 6.43819 57.9474 6.49317 57.7774 6.54316C57.6108 6.58981 57.4175 6.63147 57.1976 6.66812C56.981 6.70145 56.7694 6.73144 56.5628 6.7581C56.3595 6.78142 56.1945 6.80142 56.0679 6.81808C55.7613 6.85807 55.4747 6.92305 55.2081 7.01303C54.9449 7.09967 54.7316 7.2313 54.5683 7.40791C54.4084 7.5812 54.3284 7.8178 54.3284 8.11771C54.3284 8.5276 54.48 8.83751 54.7833 9.04745C55.0898 9.25406 55.4781 9.35736 55.9479 9.35736ZM61.4401 10.2371V2.55928H62.5798V3.75894H62.6798C62.8397 3.34906 63.098 3.03082 63.4546 2.80421C63.8111 2.57428 64.2393 2.45931 64.7392 2.45931C65.2457 2.45931 65.6673 2.57428 66.0038 2.80421C66.3437 3.03082 66.6087 3.34906 66.7986 3.75894H66.8786C67.0752 3.36239 67.3701 3.04748 67.7633 2.81421C68.1566 2.57761 68.6281 2.45931 69.1779 2.45931C69.8644 2.45931 70.4259 2.67425 70.8625 3.10413C71.299 3.53068 71.5173 4.19549 71.5173 5.09857V10.2371H70.3376V5.09857C70.3376 4.53206 70.1827 4.12717 69.8728 3.88391C69.5628 3.64064 69.1979 3.51901 68.7781 3.51901C68.2382 3.51901 67.82 3.6823 67.5234 4.00887C67.2268 4.33212 67.0785 4.742 67.0785 5.23853V10.2371H65.8789V4.9786C65.8789 4.54206 65.7373 4.19049 65.454 3.9239C65.1707 3.65397 64.8058 3.51901 64.3593 3.51901C64.0527 3.51901 63.7661 3.60066 63.4996 3.76394C63.2363 3.92723 63.023 4.15383 62.8597 4.44375C62.6998 4.73034 62.6198 5.06191 62.6198 5.43847V10.2371H61.4401ZM73.6742 13.1163V2.55928H74.8139V3.77894H74.9538C75.0405 3.64564 75.1604 3.47569 75.3137 3.26908C75.4703 3.05914 75.6936 2.87253 75.9835 2.70924C76.2768 2.54262 76.6733 2.45931 77.1732 2.45931C77.8197 2.45931 78.3895 2.62093 78.8827 2.94417C79.3759 3.26742 79.7608 3.72562 80.0374 4.31879C80.314 4.91195 80.4523 5.61175 80.4523 6.41819C80.4523 7.2313 80.314 7.9361 80.0374 8.5326C79.7608 9.12576 79.3776 9.58563 78.8877 9.91221C78.3978 10.2354 77.833 10.3971 77.1932 10.3971C76.7 10.3971 76.3051 10.3154 76.0085 10.1521C75.7119 9.98552 75.4837 9.79724 75.3237 9.5873C75.1638 9.37403 75.0405 9.19741 74.9538 9.05745H74.8538V13.1163H73.6742ZM74.8339 6.3982C74.8339 6.97804 74.9188 7.48956 75.0888 7.93277C75.2587 8.37264 75.507 8.71754 75.8336 8.96747C76.1601 9.21407 76.56 9.33737 77.0332 9.33737C77.5264 9.33737 77.938 9.20741 78.2679 8.94748C78.6011 8.68422 78.8511 8.33099 79.0177 7.88778C79.1876 7.44124 79.2726 6.94471 79.2726 6.3982C79.2726 5.85835 79.1893 5.37182 79.0227 4.93861C78.8594 4.50207 78.6111 4.15717 78.2779 3.9039C77.948 3.64731 77.5331 3.51901 77.0332 3.51901C76.5534 3.51901 76.1501 3.64064 75.8236 3.88391C75.497 4.12384 75.2504 4.46041 75.0838 4.89362C74.9172 5.3235 74.8339 5.82503 74.8339 6.3982ZM83.4314 5.27369e-06V10.2371H82.2518V5.27369e-06H83.4314ZM88.8112 10.3971C88.0714 10.3971 87.4332 10.2338 86.8967 9.90721C86.3635 9.5773 85.952 9.11743 85.662 8.5276C85.3755 7.93443 85.2322 7.24463 85.2322 6.45818C85.2322 5.67174 85.3755 4.9786 85.662 4.37877C85.952 3.77561 86.3552 3.30574 86.8717 2.96917C87.3916 2.62926 87.9981 2.45931 88.6912 2.45931C89.0911 2.45931 89.486 2.52596 89.8759 2.65925C90.2657 2.79255 90.6206 3.00916 90.9406 3.30907C91.2605 3.60565 91.5154 3.99888 91.7053 4.48874C91.8953 4.9786 91.9903 5.58176 91.9903 6.29823V6.79809H86.0719V5.77837H90.7906C90.7906 5.34516 90.704 4.95861 90.5307 4.6187C90.3607 4.2788 90.1175 4.01054 89.8009 3.81393C89.4876 3.61732 89.1177 3.51901 88.6912 3.51901C88.2213 3.51901 87.8148 3.63565 87.4715 3.86891C87.1316 4.09885 86.87 4.39876 86.6868 4.76866C86.5035 5.13855 86.4118 5.53511 86.4118 5.95832V6.63813C86.4118 7.21797 86.5118 7.7095 86.7117 8.11272C86.915 8.5126 87.1966 8.81752 87.5565 9.02746C87.9164 9.23407 88.3346 9.33737 88.8112 9.33737C89.1211 9.33737 89.401 9.29405 89.6509 9.20741C89.9042 9.11743 90.1225 8.98414 90.3057 8.80752C90.489 8.62757 90.6306 8.4043 90.7306 8.13771L91.8703 8.45762C91.7503 8.84418 91.5487 9.18408 91.2655 9.47733C90.9822 9.76725 90.6323 9.99385 90.2158 10.1571C89.7992 10.3171 89.331 10.3971 88.8112 10.3971ZM94.6445 10.3171C94.3979 10.3171 94.1863 10.2288 94.0097 10.0522C93.8331 9.87555 93.7448 9.66394 93.7448 9.41735C93.7448 9.17075 93.8331 8.95914 94.0097 8.78253C94.1863 8.60591 94.3979 8.5176 94.6445 8.5176C94.8911 8.5176 95.1027 8.60591 95.2793 8.78253C95.4559 8.95914 95.5443 9.17075 95.5443 9.41735C95.5443 9.58063 95.5026 9.73059 95.4193 9.86722C95.3393 10.0038 95.231 10.1138 95.0944 10.1971C94.9611 10.2771 94.8111 10.3171 94.6445 10.3171ZM100.78 10.3971C100.06 10.3971 99.4407 10.2271 98.9208 9.88721C98.4009 9.54731 98.0011 9.07911 97.7211 8.48261C97.4412 7.88611 97.3013 7.20464 97.3013 6.43819C97.3013 5.65841 97.4446 4.97027 97.7311 4.37377C98.0211 3.77394 98.4243 3.30574 98.9408 2.96917C99.4606 2.62926 100.067 2.45931 100.76 2.45931C101.3 2.45931 101.787 2.55928 102.22 2.75923C102.653 2.95917 103.008 3.23909 103.285 3.59899C103.561 3.95889 103.733 4.37877 103.799 4.85863H102.62C102.53 4.50873 102.33 4.19882 102.02 3.9289C101.713 3.65564 101.3 3.51901 100.78 3.51901C100.32 3.51901 99.9172 3.63898 99.5706 3.87891C99.2274 4.11551 98.9591 4.45042 98.7658 4.88363C98.5759 5.31351 98.4809 5.81836 98.4809 6.3982C98.4809 6.99137 98.5742 7.50789 98.7608 7.94776C98.9508 8.38764 99.2174 8.72921 99.5606 8.97247C99.9072 9.21574 100.314 9.33737 100.78 9.33737C101.087 9.33737 101.365 9.28405 101.615 9.17741C101.865 9.07078 102.077 8.91749 102.25 8.71754C102.423 8.5176 102.546 8.27767 102.62 7.99775H103.799C103.733 8.45095 103.568 8.85917 103.305 9.2224C103.045 9.5823 102.7 9.86889 102.27 10.0822C101.843 10.2921 101.347 10.3971 100.78 10.3971ZM108.643 10.3971C107.95 10.3971 107.342 10.2321 106.819 9.90221C106.299 9.5723 105.892 9.11077 105.599 8.5176C105.309 7.92444 105.164 7.2313 105.164 6.43819C105.164 5.63841 105.309 4.94028 105.599 4.34378C105.892 3.74728 106.299 3.28408 106.819 2.95417C107.342 2.62426 107.95 2.45931 108.643 2.45931C109.336 2.45931 109.943 2.62426 110.463 2.95417C110.986 3.28408 111.392 3.74728 111.682 4.34378C111.975 4.94028 112.122 5.63841 112.122 6.43819C112.122 7.2313 111.975 7.92444 111.682 8.5176C111.392 9.11077 110.986 9.5723 110.463 9.90221C109.943 10.2321 109.336 10.3971 108.643 10.3971ZM108.643 9.33737C109.17 9.33737 109.603 9.20241 109.943 8.93248C110.283 8.66256 110.534 8.30766 110.697 7.86778C110.861 7.42791 110.942 6.95138 110.942 6.43819C110.942 5.925 110.861 5.4468 110.697 5.00359C110.534 4.56038 110.283 4.20215 109.943 3.9289C109.603 3.65564 109.17 3.51901 108.643 3.51901C108.117 3.51901 107.683 3.65564 107.343 3.9289C107.004 4.20215 106.752 4.56038 106.589 5.00359C106.425 5.4468 106.344 5.925 106.344 6.43819C106.344 6.95138 106.425 7.42791 106.589 7.86778C106.752 8.30766 107.004 8.66256 107.343 8.93248C107.683 9.20241 108.117 9.33737 108.643 9.33737ZM113.923 10.2371V2.55928H115.062V3.75894H115.162C115.322 3.34906 115.581 3.03082 115.937 2.80421C116.294 2.57428 116.722 2.45931 117.222 2.45931C117.728 2.45931 118.15 2.57428 118.487 2.80421C118.826 3.03082 119.091 3.34906 119.281 3.75894H119.361C119.558 3.36239 119.853 3.04748 120.246 2.81421C120.639 2.57761 121.111 2.45931 121.661 2.45931C122.347 2.45931 122.909 2.67425 123.345 3.10413C123.782 3.53068 124 4.19549 124 5.09857V10.2371H122.82V5.09857C122.82 4.53206 122.665 4.12717 122.355 3.88391C122.046 3.64064 121.681 3.51901 121.261 3.51901C120.721 3.51901 120.303 3.6823 120.006 4.00887C119.71 4.33212 119.561 4.742 119.561 5.23853V10.2371H118.362V4.9786C118.362 4.54206 118.22 4.19049 117.937 3.9239C117.653 3.65397 117.289 3.51901 116.842 3.51901C116.535 3.51901 116.249 3.60066 115.982 3.76394C115.719 3.92723 115.506 4.15383 115.342 4.44375C115.182 4.73034 115.102 5.06191 115.102 5.43847V10.2371H113.923Z" fill="#707973"/>
</svg>
