<svg width="10" height="10" viewBox="0 0 10 10" fill="none" xmlns="http://www.w3.org/2000/svg">
<path d="M1.41214 8.58602C0.970849 8.14472 0.625168 7.63478 0.375101 7.0562C0.125034 6.47761 0 5.87941 0 5.2616C0 4.64378 0.117679 4.03332 0.353036 3.43022C0.588393 2.82712 0.970849 2.26079 1.5004 1.73123C1.84363 1.388 2.26777 1.09381 2.7728 0.848644C3.27784 0.60348 3.87604 0.409801 4.5674 0.267606C5.25877 0.125411 6.04819 0.0396034 6.93569 0.0101837C7.82318 -0.0192359 8.81609 0.015087 9.91443 0.113153C9.99288 1.15265 10.0174 2.10879 9.98798 2.98157C9.95856 3.85435 9.87765 4.64133 9.74527 5.3425C9.61288 6.04367 9.42655 6.65658 9.18629 7.18123C8.94603 7.70588 8.64938 8.14472 8.29635 8.49776C7.7766 9.01751 7.22498 9.39751 6.64149 9.63777C6.058 9.87803 5.46225 9.99816 4.85425 9.99816C4.21682 9.99816 3.5941 9.87313 2.9861 9.62306C2.37809 9.37299 1.85344 9.02731 1.41214 8.58602ZM3.05965 8.35066C3.34404 8.51737 3.63578 8.6375 3.93488 8.71105C4.23398 8.7846 4.54044 8.82138 4.85425 8.82138C5.30535 8.82138 5.75155 8.73066 6.19284 8.54924C6.63414 8.36782 7.05582 8.07608 7.45789 7.67401C7.63441 7.49749 7.81337 7.24987 7.9948 6.93116C8.17622 6.61245 8.33312 6.19567 8.46551 5.68083C8.5979 5.16598 8.69842 4.54326 8.76706 3.81268C8.83571 3.08209 8.84551 2.21176 8.79648 1.20168C8.31596 1.18207 7.77415 1.17471 7.17104 1.17962C6.56794 1.18452 5.96729 1.2311 5.36909 1.31936C4.77089 1.40762 4.20211 1.54981 3.66275 1.74594C3.12339 1.94208 2.68209 2.21176 2.33886 2.55499C1.89757 2.99628 1.59357 3.43267 1.42685 3.86416C1.26014 4.29565 1.17679 4.71243 1.17679 5.1145C1.17679 5.69308 1.28711 6.20057 1.50776 6.63696C1.72841 7.07336 1.92209 7.37981 2.0888 7.55633C2.50067 6.77181 3.04494 6.01915 3.72159 5.29837C4.39824 4.57759 5.18767 3.98674 6.08987 3.52583C5.3838 4.14365 4.76844 4.84236 4.24379 5.62199C3.71914 6.40161 3.32442 7.31117 3.05965 8.35066Z" fill="#404943"/>
</svg>
