<svg width="17" height="22" viewBox="0 0 17 22" fill="none" xmlns="http://www.w3.org/2000/svg">
<path d="M2.74999 18.3332C1.9861 18.3332 1.3368 18.0659 0.80208 17.5312C0.26736 16.9964 0 16.3471 0 15.5833V12.8333H2.74999V0L4.12498 1.37499L5.49997 0L6.87497 1.37499L8.24996 0L9.62496 1.37499L10.9999 0L12.3749 1.37499L13.7499 0L15.1249 1.37499L16.4999 0V15.5833C16.4999 16.3471 16.2326 16.9964 15.6978 17.5312C15.1631 18.0659 14.5138 18.3332 13.7499 18.3332H2.74999ZM13.7499 16.4999C14.0097 16.4999 14.2274 16.4121 14.4031 16.2364C14.5788 16.0607 14.6666 15.843 14.6666 15.5833V2.74999H4.58331V12.8333H12.8333V15.5833C12.8333 15.843 12.9211 16.0607 13.0968 16.2364C13.2725 16.4121 13.4902 16.4999 13.7499 16.4999ZM5.49997 6.41664V4.58331H10.9999V6.41664H5.49997ZM5.49997 9.16662V7.3333H10.9999V9.16662H5.49997ZM12.8333 6.41664C12.5736 6.41664 12.3558 6.32879 12.1802 6.1531C12.0045 5.9774 11.9166 5.7597 11.9166 5.49997C11.9166 5.24025 12.0045 5.02255 12.1802 4.84685C12.3558 4.67116 12.5736 4.58331 12.8333 4.58331C13.093 4.58331 13.3107 4.67116 13.4864 4.84685C13.6621 5.02255 13.7499 5.24025 13.7499 5.49997C13.7499 5.7597 13.6621 5.9774 13.4864 6.1531C13.3107 6.32879 13.093 6.41664 12.8333 6.41664ZM12.8333 9.16662C12.5736 9.16662 12.3558 9.07878 12.1802 8.90308C12.0045 8.72739 11.9166 8.50968 11.9166 8.24996C11.9166 7.99024 12.0045 7.77253 12.1802 7.59684C12.3558 7.42115 12.5736 7.3333 12.8333 7.3333C13.093 7.3333 13.3107 7.42115 13.4864 7.59684C13.6621 7.77253 13.7499 7.99024 13.7499 8.24996C13.7499 8.50968 13.6621 8.72739 13.4864 8.90308C13.3107 9.07878 13.093 9.16662 12.8333 9.16662Z" fill="#506856"/>
</svg>
