<svg width="18" height="18" viewBox="0 0 18 18" fill="none" xmlns="http://www.w3.org/2000/svg">
<path d="M8.71333 17.9809C8.13244 17.9809 7.54715 17.9148 6.95746 17.7828C6.36777 17.6508 5.76488 17.4616 5.14879 17.2151C5.36002 15.0852 5.97611 13.0961 6.99707 11.2478C8.01803 9.39954 9.32943 7.77129 10.9313 6.36308C8.99498 7.34883 7.31832 8.65143 5.9013 10.2709C4.48429 11.8903 3.49413 13.7386 2.93085 15.8157C2.86044 15.7629 2.79443 15.7057 2.73282 15.6441C2.67121 15.5825 2.6052 15.5165 2.53479 15.4461C1.70746 14.6187 1.07816 13.6946 0.646899 12.6736C0.215633 11.6527 0 10.5877 0 9.47875C0 8.28177 0.237636 7.1376 0.712909 6.04623C1.18818 4.95486 1.84828 3.98671 2.69321 3.14178C4.11903 1.71597 5.96731 0.787424 8.23806 0.356158C10.5088 -0.0751081 13.6949 -0.114714 17.7963 0.23734C18.1132 4.44438 18.0604 7.65247 17.6379 9.86161C17.2154 12.0708 16.3001 13.8794 14.8919 15.2876C14.0293 16.1502 13.0656 16.8147 12.0006 17.2811C10.9357 17.7476 9.83991 17.9809 8.71333 17.9809Z" fill="#0F5238"/>
</svg>
