<svg width="15" height="19" viewBox="0 0 15 19" fill="none" xmlns="http://www.w3.org/2000/svg">
<path d="M1.66667 18.6667C1.20833 18.6667 0.815972 18.5035 0.489583 18.1771C0.163194 17.8507 0 17.4583 0 17V5.33333C0 4.875 0.163194 4.48264 0.489583 4.15625C0.815972 3.82986 1.20833 3.66667 1.66667 3.66667H2.5V2H4.16667V3.66667H10.8333V2H12.5V3.66667H13.3333C13.7917 3.66667 14.184 3.82986 14.5104 4.15625C14.8368 4.48264 15 4.875 15 5.33333V17C15 17.4583 14.8368 17.8507 14.5104 18.1771C14.184 18.5035 13.7917 18.6667 13.3333 18.6667H1.66667ZM1.66667 17H13.3333V8.66667H1.66667V17ZM1.66667 7H13.3333V5.33333H1.66667V7ZM1.66667 7V5.33333V7Z" fill="#707973"/>
</svg>
