<svg width="52" height="20" viewBox="0 0 52 20" fill="none" xmlns="http://www.w3.org/2000/svg">
<path d="M0 17V15H2V8C2 6.61667 2.41667 5.3875 3.25 4.3125C4.08333 3.2375 5.16667 2.53333 6.5 2.2V1.5C6.5 1.08333 6.64583 0.729167 6.9375 0.4375C7.22917 0.145833 7.58333 0 8 0C8.41667 0 8.77083 0.145833 9.0625 0.4375C9.35417 0.729167 9.5 1.08333 9.5 1.5V2.2C10.8333 2.53333 11.9167 3.2375 12.75 4.3125C13.5833 5.3875 14 6.61667 14 8V15H16V17H0ZM8 20C7.45 20 6.97917 19.8042 6.5875 19.4125C6.19583 19.0208 6 18.55 6 18H10C10 18.55 9.80417 19.0208 9.4125 19.4125C9.02083 19.8042 8.55 20 8 20ZM4 15H12V8C12 6.9 11.6083 5.95833 10.825 5.175C10.0417 4.39167 9.1 4 8 4C6.9 4 5.95833 4.39167 5.175 5.175C4.39167 5.95833 4 6.9 4 8V15Z" fill="#0F5238"/>
<path d="M35.85 15.1C36.7 14.45 37.65 13.9375 38.7 13.5625C39.75 13.1875 40.85 13 42 13C43.15 13 44.25 13.1875 45.3 13.5625C46.35 13.9375 47.3 14.45 48.15 15.1C48.7333 14.4167 49.1875 13.6417 49.5125 12.775C49.8375 11.9083 50 10.9833 50 10C50 7.78333 49.2208 5.89583 47.6625 4.3375C46.1042 2.77917 44.2167 2 42 2C39.7833 2 37.8958 2.77917 36.3375 4.3375C34.7792 5.89583 34 7.78333 34 10C34 10.9833 34.1625 11.9083 34.4875 12.775C34.8125 13.6417 35.2667 14.4167 35.85 15.1ZM42 11C41.0167 11 40.1875 10.6625 39.5125 9.9875C38.8375 9.3125 38.5 8.48333 38.5 7.5C38.5 6.51667 38.8375 5.6875 39.5125 5.0125C40.1875 4.3375 41.0167 4 42 4C42.9833 4 43.8125 4.3375 44.4875 5.0125C45.1625 5.6875 45.5 6.51667 45.5 7.5C45.5 8.48333 45.1625 9.3125 44.4875 9.9875C43.8125 10.6625 42.9833 11 42 11ZM42 20C40.6167 20 39.3167 19.7375 38.1 19.2125C36.8833 18.6875 35.825 17.975 34.925 17.075C34.025 16.175 33.3125 15.1167 32.7875 13.9C32.2625 12.6833 32 11.3833 32 10C32 8.61667 32.2625 7.31667 32.7875 6.1C33.3125 4.88333 34.025 3.825 34.925 2.925C35.825 2.025 36.8833 1.3125 38.1 0.7875C39.3167 0.2625 40.6167 0 42 0C43.3833 0 44.6833 0.2625 45.9 0.7875C47.1167 1.3125 48.175 2.025 49.075 2.925C49.975 3.825 50.6875 4.88333 51.2125 6.1C51.7375 7.31667 52 8.61667 52 10C52 11.3833 51.7375 12.6833 51.2125 13.9C50.6875 15.1167 49.975 16.175 49.075 17.075C48.175 17.975 47.1167 18.6875 45.9 19.2125C44.6833 19.7375 43.3833 20 42 20ZM42 18C42.8833 18 43.7167 17.8708 44.5 17.6125C45.2833 17.3542 46 16.9833 46.65 16.5C46 16.0167 45.2833 15.6458 44.5 15.3875C43.7167 15.1292 42.8833 15 42 15C41.1167 15 40.2833 15.1292 39.5 15.3875C38.7167 15.6458 38 16.0167 37.35 16.5C38 16.9833 38.7167 17.3542 39.5 17.6125C40.2833 17.8708 41.1167 18 42 18ZM42 9C42.4333 9 42.7917 8.85833 43.075 8.575C43.3583 8.29167 43.5 7.93333 43.5 7.5C43.5 7.06667 43.3583 6.70833 43.075 6.425C42.7917 6.14167 42.4333 6 42 6C41.5667 6 41.2083 6.14167 40.925 6.425C40.6417 6.70833 40.5 7.06667 40.5 7.5C40.5 7.93333 40.6417 8.29167 40.925 8.575C41.2083 8.85833 41.5667 9 42 9Z" fill="#0F5238"/>
</svg>
