<svg width="15" height="15" viewBox="0 0 15 15" fill="none" xmlns="http://www.w3.org/2000/svg">
<path d="M7.49999 7.49999C6.46874 7.49999 5.58593 7.1328 4.85155 6.39843C4.11718 5.66405 3.74999 4.78124 3.74999 3.74999C3.74999 2.71875 4.11718 1.83593 4.85155 1.10156C5.58593 0.367187 6.46874 0 7.49999 0C8.53124 0 9.41405 0.367187 10.1484 1.10156C10.8828 1.83593 11.25 2.71875 11.25 3.74999C11.25 4.78124 10.8828 5.66405 10.1484 6.39843C9.41405 7.1328 8.53124 7.49999 7.49999 7.49999ZM0 15V12.375C0 11.8437 0.136719 11.3554 0.410156 10.9101C0.683593 10.4648 1.04687 10.125 1.5 9.89061C2.46875 9.40623 3.45312 9.04295 4.45312 8.80077C5.45312 8.55858 6.46874 8.43749 7.49999 8.43749C8.53124 8.43749 9.54686 8.55858 10.5469 8.80077C11.5469 9.04295 12.5312 9.40623 13.5 9.89061C13.9531 10.125 14.3164 10.4648 14.5898 10.9101C14.8633 11.3554 15 11.8437 15 12.375V15H0Z" fill="#506856"/>
</svg>
