<svg width="68" height="81" viewBox="0 0 68 81" fill="none" xmlns="http://www.w3.org/2000/svg">
<g filter="url(#filter0_d_3_547)">
<rect x="2" y="1" width="64" height="64" rx="32" fill="#CCE6D0" shape-rendering="crispEdges"/>
<path d="M32.1334 39.1334L41.5334 29.7334L39.6667 27.8667L32.1334 35.4001L28.3334 31.6001L26.4667 33.4667L32.1334 39.1334ZM34 46.3334C32.1556 46.3334 30.4222 45.9834 28.8 45.2834C27.1778 44.5834 25.7667 43.6334 24.5667 42.4334C23.3667 41.2334 22.4167 39.8223 21.7167 38.2001C21.0167 36.5779 20.6667 34.8445 20.6667 33.0001C20.6667 31.1556 21.0167 29.4223 21.7167 27.8001C22.4167 26.1779 23.3667 24.7667 24.5667 23.5667C25.7667 22.3667 27.1778 21.4167 28.8 20.7167C30.4222 20.0167 32.1556 19.6667 34 19.6667C35.8445 19.6667 37.5778 20.0167 39.2 20.7167C40.8222 21.4167 42.2334 22.3667 43.4334 23.5667C44.6334 24.7667 45.5834 26.1779 46.2834 27.8001C46.9834 29.4223 47.3334 31.1556 47.3334 33.0001C47.3334 34.8445 46.9834 36.5779 46.2834 38.2001C45.5834 39.8223 44.6334 41.2334 43.4334 42.4334C42.2334 43.6334 40.8222 44.5834 39.2 45.2834C37.5778 45.9834 35.8445 46.3334 34 46.3334Z" fill="#0F5238"/>
</g>
<defs>
<filter id="filter0_d_3_547" x="0" y="0" width="68" height="68" filterUnits="userSpaceOnUse" color-interpolation-filters="sRGB">
<feFlood flood-opacity="0" result="BackgroundImageFix"/>
<feColorMatrix in="SourceAlpha" type="matrix" values="0 0 0 0 0 0 0 0 0 0 0 0 0 0 0 0 0 0 127 0" result="hardAlpha"/>
<feOffset dy="1"/>
<feGaussianBlur stdDeviation="1"/>
<feComposite in2="hardAlpha" operator="out"/>
<feColorMatrix type="matrix" values="0 0 0 0 0 0 0 0 0 0 0 0 0 0 0 0 0 0 0.05 0"/>
<feBlend mode="normal" in2="BackgroundImageFix" result="effect1_dropShadow_3_547"/>
<feBlend mode="normal" in="SourceGraphic" in2="effect1_dropShadow_3_547" result="shape"/>
</filter>
</defs>
</svg>
