<svg width="11" height="12" viewBox="0 0 11 12" fill="none" xmlns="http://www.w3.org/2000/svg">
<path d="M1.19999 11.9999C0.869994 11.9999 0.587496 11.8824 0.352498 11.6474C0.117499 11.4124 0 11.1299 0 10.7999V2.39998C0 2.06999 0.117499 1.78749 0.352498 1.55249C0.587496 1.31749 0.869994 1.19999 1.19999 1.19999H1.79999V0H2.99998V1.19999H7.79995V0H8.99994V1.19999H9.59993C9.92993 1.19999 10.2124 1.31749 10.4474 1.55249C10.6824 1.78749 10.7999 2.06999 10.7999 2.39998V10.7999C10.7999 11.1299 10.6824 11.4124 10.4474 11.6474C10.2124 11.8824 9.92993 11.9999 9.59993 11.9999H1.19999ZM1.19999 10.7999H9.59993V4.79997H1.19999V10.7999ZM1.19999 3.59997H9.59993V2.39998H1.19999V3.59997ZM1.19999 3.59997V2.39998V3.59997Z" fill="#404943"/>
</svg>
