<svg width="14" height="14" viewBox="0 0 14 14" fill="none" xmlns="http://www.w3.org/2000/svg">
<path d="M0 14C0 12.705 0.172084 11.5996 0.516251 10.6838C0.860418 9.76793 1.30084 9.00668 1.8375 8.40001C2.37417 7.79335 2.975 7.32376 3.64001 6.99126C4.30501 6.65876 4.95834 6.42834 5.60001 6.30001V4.20001C4.00167 4.00167 2.66875 3.50876 1.60125 2.72125C0.533751 1.93375 0 1.02667 0 0H14C14 1.02667 13.4663 1.93375 12.3988 2.72125C11.3313 3.50876 9.99835 4.00167 8.40001 4.20001V6.30001C9.04168 6.42834 9.69502 6.65876 10.36 6.99126C11.025 7.32376 11.6259 7.79335 12.1625 8.40001C12.6992 9.00668 13.1396 9.76793 13.4838 10.6838C13.8279 11.5996 14 12.705 14 14H9.80001V12.6H12.5125C12.3025 10.8267 11.6404 9.54335 10.5263 8.75001C9.4121 7.95668 8.23668 7.56001 7.00001 7.56001C5.76334 7.56001 4.58792 7.95668 3.47376 8.75001C2.35959 9.54335 1.6975 10.8267 1.4875 12.6H4.20001V14H0ZM7.00001 2.8875C8.06168 2.8875 9.00668 2.74459 9.83502 2.45875C10.6633 2.17292 11.3225 1.82 11.8125 1.4H2.1875C2.6775 1.82 3.33667 2.17292 4.16501 2.45875C4.99334 2.74459 5.93834 2.8875 7.00001 2.8875ZM7.00001 14C6.61501 14 6.28543 13.8629 6.01126 13.5888C5.73709 13.3146 5.60001 12.985 5.60001 12.6C5.60001 12.4017 5.63793 12.2209 5.71376 12.0575C5.78959 11.8942 5.89168 11.7484 6.02001 11.62C6.30001 11.34 6.77251 11.0454 7.43751 10.7363C8.10251 10.4271 8.89001 10.115 9.80001 9.80001C9.47335 10.71 9.15835 11.4975 8.85501 12.1625C8.55168 12.8275 8.26001 13.3 7.98001 13.58C7.85168 13.7084 7.70585 13.8104 7.54251 13.8863C7.37918 13.9621 7.19834 14 7.00001 14Z" fill="#404943"/>
</svg>
